<?xml version="1.0" encoding="UTF-8" standalone="no"?>
<!-- Created with Inkscape (http://www.inkscape.org/) -->

<svg
   width="210mm"
   height="297mm"
   viewBox="0 0 210 297"
   version="1.1"
   id="svg5"
   sodipodi:docname="BoxMeasurements.svg"
   inkscape:version="1.1.1 (3bf5ae0d25, 2021-09-20)"
   xmlns:inkscape="http://www.inkscape.org/namespaces/inkscape"
   xmlns:sodipodi="http://sodipodi.sourceforge.net/DTD/sodipodi-0.dtd"
   xmlns="http://www.w3.org/2000/svg"
   xmlns:svg="http://www.w3.org/2000/svg">
  <sodipodi:namedview
     id="namedview7"
     pagecolor="#505050"
     bordercolor="#ffffff"
     borderopacity="1"
     inkscape:pageshadow="0"
     inkscape:pageopacity="0"
     inkscape:pagecheckerboard="1"
     inkscape:document-units="mm"
     showgrid="false"
     inkscape:zoom="1.8116734"
     inkscape:cx="495.39833"
     inkscape:cy="362.92413"
     inkscape:window-width="960"
     inkscape:window-height="1057"
     inkscape:window-x="-8"
     inkscape:window-y="-8"
     inkscape:window-maximized="0"
     inkscape:current-layer="layer1" />
  <defs
     id="defs2" />
  <g
     inkscape:label="Layer 1"
     inkscape:groupmode="layer"
     id="layer1">
    <g
       id="panel8061">
      <path
         style="fill:none;stroke:#000000;stroke-width:1"
         d="M 58.1 128.2 L 64.9682 128.2 L 64.9682 125.2 L 71.0682 125.2 L 71.0682 128.2 L 77.8864 128.2 L 77.8864 125.2 L 83.9864 125.2 L 83.9864 128.2 L 90.8045 128.2 L 90.8045 125.2 L 96.9045 125.2 L 96.9045 128.2 L 103.723 128.2 L 103.723 125.2 L 109.823 125.2 L 109.823 128.2 L 116.641 128.2 L 116.641 125.2 L 122.741 125.2 L 122.741 128.2 L 129.559 128.2 L 129.559 125.2 L 135.659 125.2 L 135.659 128.2 L 142.477 128.2 L 142.477 125.2 L 148.577 125.2 L 148.577 128.2 L 155.395 128.2 L 155.395 125.2 L 161.495 125.2 L 161.495 128.2 L 168.314 128.2 L 168.314 125.2 L 174.414 125.2 L 174.414 128.2 L 181.232 128.2 L 181.232 125.2 L 187.332 125.2 L 187.332 128.2 L 194.2 128.2"
         id="path830" />
      <path
         style="fill:none;stroke:#000000;stroke-width:1"
         d="M 194.2 128.2 L 194.2 131.67 L 191.2 131.67 L 191.2 137.57 L 194.2 137.57 L 194.2 144.09 L 191.2 144.09 L 191.2 149.99 L 194.2 149.99 L 194.2 156.51 L 191.2 156.51 L 191.2 162.41 L 194.2 162.41 L 194.2 168.93 L 191.2 168.93 L 191.2 174.83 L 194.2 174.83 L 194.2 178.3"
         id="path832" />
      <path
         style="fill:none;stroke:#000000;stroke-width:1"
         d="M 194.2 178.3 L 187.332 178.3 L 187.332 181.3 L 181.232 181.3 L 181.232 178.3 L 174.414 178.3 L 174.414 181.3 L 168.314 181.3 L 168.314 178.3 L 161.495 178.3 L 161.495 181.3 L 155.395 181.3 L 155.395 178.3 L 148.577 178.3 L 148.577 181.3 L 142.477 181.3 L 142.477 178.3 L 135.659 178.3 L 135.659 181.3 L 129.559 181.3 L 129.559 178.3 L 122.741 178.3 L 122.741 181.3 L 116.641 181.3 L 116.641 178.3 L 109.823 178.3 L 109.823 181.3 L 103.723 181.3 L 103.723 178.3 L 96.9045 178.3 L 96.9045 181.3 L 90.8045 181.3 L 90.8045 178.3 L 83.9864 178.3 L 83.9864 181.3 L 77.8864 181.3 L 77.8864 178.3 L 71.0682 178.3 L 71.0682 181.3 L 64.9682 181.3 L 64.9682 178.3 L 58.1 178.3"
         id="path834" />
      <path
         style="fill:none;stroke:#000000;stroke-width:1"
         d="M 58.1 178.3 L 58.1 174.83 L 61.1 174.83 L 61.1 168.93 L 58.1 168.93 L 58.1 162.41 L 61.1 162.41 L 61.1 156.51 L 58.1 156.51 L 58.1 149.99 L 61.1 149.99 L 61.1 144.09 L 58.1 144.09 L 58.1 137.57 L 61.1 137.57 L 61.1 131.67 L 58.1 131.67 L 58.1 128.2"
         id="path836" />
    </g>
    <g
       id="panel2407">
      <path
         style="fill:none;stroke:#000000;stroke-width:1"
         d="M 3 185.3 L 6.86818 185.3 L 6.86818 185.3 L 12.9682 185.3 L 12.9682 185.3 L 19.7864 185.3 L 19.7864 185.3 L 25.8864 185.3 L 25.8864 185.3 L 32.7045 185.3 L 32.7045 185.3 L 38.8045 185.3 L 38.8045 185.3 L 45.6227 185.3 L 45.6227 185.3 L 51.7227 185.3 L 51.7227 185.3 L 58.5409 185.3 L 58.5409 185.3 L 64.6409 185.3 L 64.6409 185.3 L 71.4591 185.3 L 71.4591 185.3 L 77.5591 185.3 L 77.5591 185.3 L 84.3773 185.3 L 84.3773 185.3 L 90.4773 185.3 L 90.4773 185.3 L 97.2955 185.3 L 97.2955 185.3 L 103.395 185.3 L 103.395 185.3 L 110.214 185.3 L 110.214 185.3 L 116.314 185.3 L 116.314 185.3 L 123.132 185.3 L 123.132 185.3 L 129.232 185.3 L 129.232 185.3 L 133.1 185.3"
         id="path839" />
      <path
         style="fill:none;stroke:#000000;stroke-width:1"
         d="M 96.875 182.3 L 96.875 210.4 L 99.775 210.4 L 99.775 182.3 L 96.875 182.3"
         id="path841" />
      <path
         style="fill:none;stroke:#000000;stroke-width:1"
         d="M 63.6 182.3 L 63.6 210.4 L 66.5 210.4 L 66.5 182.3 L 63.6 182.3"
         id="path843" />
      <path
         style="fill:none;stroke:#000000;stroke-width:1"
         d="M 30.325 182.3 L 30.325 210.4 L 33.225 210.4 L 33.225 182.3 L 30.325 182.3"
         id="path845" />
      <path
         style="fill:none;stroke:#000000;stroke-width:1"
         d="M 133.1 185.3 L 133.1 188.67 L 133.1 188.67 L 133.1 194.77 L 133.1 194.77 L 133.1 201.09 L 133.1 201.09 L 133.1 207.19 L 133.1 207.19 L 133.1 213.51 L 133.1 213.51 L 133.1 219.61 L 133.1 219.61 L 133.1 225.93 L 133.1 225.93 L 133.1 232.03 L 133.1 232.03 L 133.1 235.4"
         id="path847" />
      <path
         style="fill:none;stroke:#000000;stroke-width:1"
         d="M 133.1 235.4 L 129.232 235.4 L 129.232 235.4 L 123.132 235.4 L 123.132 235.4 L 116.314 235.4 L 116.314 235.4 L 110.214 235.4 L 110.214 235.4 L 103.395 235.4 L 103.395 235.4 L 97.2955 235.4 L 97.2955 235.4 L 90.4773 235.4 L 90.4773 235.4 L 84.3773 235.4 L 84.3773 235.4 L 77.5591 235.4 L 77.5591 235.4 L 71.4591 235.4 L 71.4591 235.4 L 64.6409 235.4 L 64.6409 235.4 L 58.5409 235.4 L 58.5409 235.4 L 51.7227 235.4 L 51.7227 235.4 L 45.6227 235.4 L 45.6227 235.4 L 38.8045 235.4 L 38.8045 235.4 L 32.7045 235.4 L 32.7045 235.4 L 25.8864 235.4 L 25.8864 235.4 L 19.7864 235.4 L 19.7864 235.4 L 12.9682 235.4 L 12.9682 235.4 L 6.86818 235.4 L 6.86818 235.4 L 3 235.4"
         id="path849" />
      <path
         style="fill:none;stroke:#000000;stroke-width:1"
         d="M 3 235.4 L 3 232.03 L 3 232.03 L 3 225.93 L 3 225.93 L 3 219.61 L 3 219.61 L 3 213.51 L 3 213.51 L 3 207.19 L 3 207.19 L 3 201.09 L 3 201.09 L 3 194.77 L 3 194.77 L 3 188.67 L 3 188.67 L 3 185.3"
         id="path851" />
    </g>
    <g
       id="panel2221">
      <path
         style="fill:none;stroke:#000000;stroke-width:1"
         d="M 140.1 185.3 L 143.968 185.3 L 143.968 185.3 L 150.068 185.3 L 150.068 185.3 L 156.886 185.3 L 156.886 185.3 L 162.986 185.3 L 162.986 185.3 L 169.805 185.3 L 169.805 185.3 L 175.905 185.3 L 175.905 185.3 L 182.723 185.3 L 182.723 185.3 L 188.823 185.3 L 188.823 185.3 L 195.641 185.3 L 195.641 185.3 L 201.741 185.3 L 201.741 185.3 L 208.559 185.3 L 208.559 185.3 L 214.659 185.3 L 214.659 185.3 L 221.477 185.3 L 221.477 185.3 L 227.577 185.3 L 227.577 185.3 L 234.395 185.3 L 234.395 185.3 L 240.495 185.3 L 240.495 185.3 L 247.314 185.3 L 247.314 185.3 L 253.414 185.3 L 253.414 185.3 L 260.232 185.3 L 260.232 185.3 L 266.332 185.3 L 266.332 185.3 L 270.2 185.3"
         id="path854" />
      <path
         style="fill:none;stroke:#000000;stroke-width:1"
         d="M 233.975 182.3 L 233.975 210.4 L 236.875 210.4 L 236.875 182.3 L 233.975 182.3"
         id="path856" />
      <path
         style="fill:none;stroke:#000000;stroke-width:1"
         d="M 200.7 182.3 L 200.7 210.4 L 203.6 210.4 L 203.6 182.3 L 200.7 182.3"
         id="path858" />
      <path
         style="fill:none;stroke:#000000;stroke-width:1"
         d="M 167.425 182.3 L 167.425 210.4 L 170.325 210.4 L 170.325 182.3 L 167.425 182.3"
         id="path860" />
      <path
         style="fill:none;stroke:#000000;stroke-width:1"
         d="M 270.2 185.3 L 270.2 188.67 L 270.2 188.67 L 270.2 194.77 L 270.2 194.77 L 270.2 201.09 L 270.2 201.09 L 270.2 207.19 L 270.2 207.19 L 270.2 213.51 L 270.2 213.51 L 270.2 219.61 L 270.2 219.61 L 270.2 225.93 L 270.2 225.93 L 270.2 232.03 L 270.2 232.03 L 270.2 235.4"
         id="path862" />
      <path
         style="fill:none;stroke:#000000;stroke-width:1"
         d="M 270.2 235.4 L 266.332 235.4 L 266.332 235.4 L 260.232 235.4 L 260.232 235.4 L 253.414 235.4 L 253.414 235.4 L 247.314 235.4 L 247.314 235.4 L 240.495 235.4 L 240.495 235.4 L 234.395 235.4 L 234.395 235.4 L 227.577 235.4 L 227.577 235.4 L 221.477 235.4 L 221.477 235.4 L 214.659 235.4 L 214.659 235.4 L 208.559 235.4 L 208.559 235.4 L 201.741 235.4 L 201.741 235.4 L 195.641 235.4 L 195.641 235.4 L 188.823 235.4 L 188.823 235.4 L 182.723 235.4 L 182.723 235.4 L 175.905 235.4 L 175.905 235.4 L 169.805 235.4 L 169.805 235.4 L 162.986 235.4 L 162.986 235.4 L 156.886 235.4 L 156.886 235.4 L 150.068 235.4 L 150.068 235.4 L 143.968 235.4 L 143.968 235.4 L 140.1 235.4"
         id="path864" />
      <path
         style="fill:none;stroke:#000000;stroke-width:1"
         d="M 140.1 235.4 L 140.1 232.03 L 140.1 232.03 L 140.1 225.93 L 140.1 225.93 L 140.1 219.61 L 140.1 219.61 L 140.1 213.51 L 140.1 213.51 L 140.1 207.19 L 140.1 207.19 L 140.1 201.09 L 140.1 201.09 L 140.1 194.77 L 140.1 194.77 L 140.1 188.67 L 140.1 188.67 L 140.1 185.3"
         id="path866" />
    </g>
    <g
       id="panel1594">
      <path
         style="fill:none;stroke:#000000;stroke-width:1"
         d="M 4 61.1 L 7.37 61.1 L 7.37 58.1 L 13.47 58.1 L 13.47 61.1 L 19.79 61.1 L 19.79 58.1 L 25.89 58.1 L 25.89 61.1 L 32.21 61.1 L 32.21 58.1 L 38.31 58.1 L 38.31 61.1 L 44.63 61.1 L 44.63 58.1 L 50.73 58.1 L 50.73 61.1 L 54.1 61.1"
         id="path869" />
      <path
         style="fill:none;stroke:#000000;stroke-width:1"
         d="M 54.1 61.1 L 54.1 64.0667 L 57.1 64.0667 L 57.1 70.1667 L 54.1 70.1667 L 54.1 76.0833 L 57.1 76.0833 L 57.1 82.1833 L 54.1 82.1833 L 54.1 88.1 L 57.1 88.1 L 57.1 94.2 L 54.1 94.2 L 54.1 100.117 L 57.1 100.117 L 57.1 106.217 L 54.1 106.217 L 54.1 112.133 L 57.1 112.133 L 57.1 118.233 L 54.1 118.233 L 54.1 121.2"
         id="path871" />
      <path
         style="fill:none;stroke:#000000;stroke-width:1"
         d="M 54.1 121.2 L 50.73 121.2 L 50.73 124.2 L 44.63 124.2 L 44.63 121.2 L 38.31 121.2 L 38.31 124.2 L 32.21 124.2 L 32.21 121.2 L 25.89 121.2 L 25.89 124.2 L 19.79 124.2 L 19.79 121.2 L 13.47 121.2 L 13.47 124.2 L 7.37 124.2 L 7.37 121.2 L 4 121.2"
         id="path873" />
      <path
         style="fill:none;stroke:#000000;stroke-width:1"
         d="M 4 121.2 L 4 118.233 L 1 118.233 L 1 112.133 L 4 112.133 L 4 106.217 L 1 106.217 L 1 100.117 L 4 100.117 L 4 94.2 L 1 94.2 L 1 88.1 L 4 88.1 L 4 82.1833 L 1 82.1833 L 1 76.0833 L 4 76.0833 L 4 70.1667 L 1 70.1667 L 1 64.0667 L 4 64.0667 L 4 61.1"
         id="path875" />
    </g>
    <g
       id="panel6408">
      <path
         style="fill:none;stroke:#000000;stroke-width:1"
         d="M 0 260.483 L 28.1 260.483 L 28.1 263.383 L 0 263.383 L 0 260.483"
         id="path878" />
      <path
         style="fill:none;stroke:#000000;stroke-width:1"
         d="M 0 281.517 L 28.1 281.517 L 28.1 284.417 L 0 284.417 L 0 281.517"
         id="path880" />
      <path
         style="fill:none;stroke:#000000;stroke-width:1"
         d="M 3 242.4 L 6.37 242.4 L 6.37 242.4 L 12.47 242.4 L 12.47 242.4 L 18.79 242.4 L 18.79 242.4 L 24.89 242.4 L 24.89 242.4 L 31.21 242.4 L 31.21 242.4 L 37.31 242.4 L 37.31 242.4 L 43.63 242.4 L 43.63 242.4 L 49.73 242.4 L 49.73 242.4 L 53.1 242.4"
         id="path882" />
      <path
         style="fill:none;stroke:#000000;stroke-width:1"
         d="M 53.1 242.4 L 53.1 245.367 L 53.1 245.367 L 53.1 251.467 L 53.1 251.467 L 53.1 257.383 L 53.1 257.383 L 53.1 263.483 L 53.1 263.483 L 53.1 269.4 L 53.1 269.4 L 53.1 275.5 L 53.1 275.5 L 53.1 281.417 L 53.1 281.417 L 53.1 287.517 L 53.1 287.517 L 53.1 293.433 L 53.1 293.433 L 53.1 299.533 L 53.1 299.533 L 53.1 302.5"
         id="path884" />
      <path
         style="fill:none;stroke:#000000;stroke-width:1"
         d="M 53.1 302.5 L 49.73 302.5 L 49.73 302.5 L 43.63 302.5 L 43.63 302.5 L 37.31 302.5 L 37.31 302.5 L 31.21 302.5 L 31.21 302.5 L 24.89 302.5 L 24.89 302.5 L 18.79 302.5 L 18.79 302.5 L 12.47 302.5 L 12.47 302.5 L 6.37 302.5 L 6.37 302.5 L 3 302.5"
         id="path886" />
      <path
         style="fill:none;stroke:#000000;stroke-width:1"
         d="M 3 302.5 L 3 299.533 L 3 299.533 L 3 293.433 L 3 293.433 L 3 287.517 L 3 287.517 L 3 281.417 L 3 281.417 L 3 275.5 L 3 275.5 L 3 269.4 L 3 269.4 L 3 263.483 L 3 263.483 L 3 257.383 L 3 257.383 L 3 251.467 L 3 251.467 L 3 245.367 L 3 245.367 L 3 242.4"
         id="path888" />
    </g>
    <g
       id="panel9901">
      <path
         style="fill:none;stroke:#000000;stroke-width:1"
         d="M 57.1 260.483 L 85.2 260.483 L 85.2 263.383 L 57.1 263.383 L 57.1 260.483"
         id="path891" />
      <path
         style="fill:none;stroke:#000000;stroke-width:1"
         d="M 57.1 281.517 L 85.2 281.517 L 85.2 284.417 L 57.1 284.417 L 57.1 281.517"
         id="path893" />
      <path
         style="fill:none;stroke:#000000;stroke-width:1"
         d="M 60.1 242.4 L 63.47 242.4 L 63.47 242.4 L 69.57 242.4 L 69.57 242.4 L 75.89 242.4 L 75.89 242.4 L 81.99 242.4 L 81.99 242.4 L 88.31 242.4 L 88.31 242.4 L 94.41 242.4 L 94.41 242.4 L 100.73 242.4 L 100.73 242.4 L 106.83 242.4 L 106.83 242.4 L 110.2 242.4"
         id="path895" />
      <path
         style="fill:none;stroke:#000000;stroke-width:1"
         d="M 110.2 242.4 L 110.2 245.367 L 110.2 245.367 L 110.2 251.467 L 110.2 251.467 L 110.2 257.383 L 110.2 257.383 L 110.2 263.483 L 110.2 263.483 L 110.2 269.4 L 110.2 269.4 L 110.2 275.5 L 110.2 275.5 L 110.2 281.417 L 110.2 281.417 L 110.2 287.517 L 110.2 287.517 L 110.2 293.433 L 110.2 293.433 L 110.2 299.533 L 110.2 299.533 L 110.2 302.5"
         id="path897" />
      <path
         style="fill:none;stroke:#000000;stroke-width:1"
         d="M 110.2 302.5 L 106.83 302.5 L 106.83 302.5 L 100.73 302.5 L 100.73 302.5 L 94.41 302.5 L 94.41 302.5 L 88.31 302.5 L 88.31 302.5 L 81.99 302.5 L 81.99 302.5 L 75.89 302.5 L 75.89 302.5 L 69.57 302.5 L 69.57 302.5 L 63.47 302.5 L 63.47 302.5 L 60.1 302.5"
         id="path899" />
      <path
         style="fill:none;stroke:#000000;stroke-width:1"
         d="M 60.1 302.5 L 60.1 299.533 L 60.1 299.533 L 60.1 293.433 L 60.1 293.433 L 60.1 287.517 L 60.1 287.517 L 60.1 281.417 L 60.1 281.417 L 60.1 275.5 L 60.1 275.5 L 60.1 269.4 L 60.1 269.4 L 60.1 263.483 L 60.1 263.483 L 60.1 257.383 L 60.1 257.383 L 60.1 251.467 L 60.1 251.467 L 60.1 245.367 L 60.1 245.367 L 60.1 242.4"
         id="path901" />
    </g>
    <g
       id="panel9295">
      <path
         style="fill:none;stroke:#000000;stroke-width:1"
         d="M 114.2 260.483 L 142.3 260.483 L 142.3 263.383 L 114.2 263.383 L 114.2 260.483"
         id="path904" />
      <path
         style="fill:none;stroke:#000000;stroke-width:1"
         d="M 114.2 281.517 L 142.3 281.517 L 142.3 284.417 L 114.2 284.417 L 114.2 281.517"
         id="path906" />
      <path
         style="fill:none;stroke:#000000;stroke-width:1"
         d="M 117.2 242.4 L 120.57 242.4 L 120.57 242.4 L 126.67 242.4 L 126.67 242.4 L 132.99 242.4 L 132.99 242.4 L 139.09 242.4 L 139.09 242.4 L 145.41 242.4 L 145.41 242.4 L 151.51 242.4 L 151.51 242.4 L 157.83 242.4 L 157.83 242.4 L 163.93 242.4 L 163.93 242.4 L 167.3 242.4"
         id="path908" />
      <path
         style="fill:none;stroke:#000000;stroke-width:1"
         d="M 167.3 242.4 L 167.3 245.367 L 167.3 245.367 L 167.3 251.467 L 167.3 251.467 L 167.3 257.383 L 167.3 257.383 L 167.3 263.483 L 167.3 263.483 L 167.3 269.4 L 167.3 269.4 L 167.3 275.5 L 167.3 275.5 L 167.3 281.417 L 167.3 281.417 L 167.3 287.517 L 167.3 287.517 L 167.3 293.433 L 167.3 293.433 L 167.3 299.533 L 167.3 299.533 L 167.3 302.5"
         id="path910" />
      <path
         style="fill:none;stroke:#000000;stroke-width:1"
         d="M 167.3 302.5 L 163.93 302.5 L 163.93 302.5 L 157.83 302.5 L 157.83 302.5 L 151.51 302.5 L 151.51 302.5 L 145.41 302.5 L 145.41 302.5 L 139.09 302.5 L 139.09 302.5 L 132.99 302.5 L 132.99 302.5 L 126.67 302.5 L 126.67 302.5 L 120.57 302.5 L 120.57 302.5 L 117.2 302.5"
         id="path912" />
      <path
         style="fill:none;stroke:#000000;stroke-width:1"
         d="M 117.2 302.5 L 117.2 299.533 L 117.2 299.533 L 117.2 293.433 L 117.2 293.433 L 117.2 287.517 L 117.2 287.517 L 117.2 281.417 L 117.2 281.417 L 117.2 275.5 L 117.2 275.5 L 117.2 269.4 L 117.2 269.4 L 117.2 263.483 L 117.2 263.483 L 117.2 257.383 L 117.2 257.383 L 117.2 251.467 L 117.2 251.467 L 117.2 245.367 L 117.2 245.367 L 117.2 242.4"
         id="path914" />
    </g>
    <g
       id="panel7476">
      <path
         style="fill:none;stroke:#000000;stroke-width:1"
         d="M 58.1 58.1 L 65.0682 58.1 L 65.0682 61.1 L 70.9682 61.1 L 70.9682 58.1 L 77.9864 58.1 L 77.9864 61.1 L 83.8864 61.1 L 83.8864 58.1 L 90.9045 58.1 L 90.9045 61.1 L 96.8045 61.1 L 96.8045 58.1 L 103.823 58.1 L 103.823 61.1 L 109.723 61.1 L 109.723 58.1 L 116.741 58.1 L 116.741 61.1 L 122.641 61.1 L 122.641 58.1 L 129.659 58.1 L 129.659 61.1 L 135.559 61.1 L 135.559 58.1 L 142.577 58.1 L 142.577 61.1 L 148.477 61.1 L 148.477 58.1 L 155.495 58.1 L 155.495 61.1 L 161.395 61.1 L 161.395 58.1 L 168.414 58.1 L 168.414 61.1 L 174.314 61.1 L 174.314 58.1 L 181.332 58.1 L 181.332 61.1 L 187.232 61.1 L 187.232 58.1 L 194.2 58.1"
         id="path917" />
      <path
         style="fill:none;stroke:#000000;stroke-width:1"
         d="M 194.2 58.1 L 194.2 64.1667 L 191.2 64.1667 L 191.2 70.0667 L 194.2 70.0667 L 194.2 76.1833 L 191.2 76.1833 L 191.2 82.0833 L 194.2 82.0833 L 194.2 88.2 L 191.2 88.2 L 191.2 94.1 L 194.2 94.1 L 194.2 100.217 L 191.2 100.217 L 191.2 106.117 L 194.2 106.117 L 194.2 112.233 L 191.2 112.233 L 191.2 118.133 L 194.2 118.133 L 194.2 124.2"
         id="path919" />
      <path
         style="fill:none;stroke:#000000;stroke-width:1"
         d="M 194.2 124.2 L 187.232 124.2 L 187.232 121.2 L 181.332 121.2 L 181.332 124.2 L 174.314 124.2 L 174.314 121.2 L 168.414 121.2 L 168.414 124.2 L 161.395 124.2 L 161.395 121.2 L 155.495 121.2 L 155.495 124.2 L 148.477 124.2 L 148.477 121.2 L 142.577 121.2 L 142.577 124.2 L 135.559 124.2 L 135.559 121.2 L 129.659 121.2 L 129.659 124.2 L 122.641 124.2 L 122.641 121.2 L 116.741 121.2 L 116.741 124.2 L 109.723 124.2 L 109.723 121.2 L 103.823 121.2 L 103.823 124.2 L 96.8045 124.2 L 96.8045 121.2 L 90.9045 121.2 L 90.9045 124.2 L 83.8864 124.2 L 83.8864 121.2 L 77.9864 121.2 L 77.9864 124.2 L 70.9682 124.2 L 70.9682 121.2 L 65.0682 121.2 L 65.0682 124.2 L 58.1 124.2"
         id="path921" />
      <path
         style="fill:none;stroke:#000000;stroke-width:1"
         d="M 58.1 124.2 L 58.1 118.133 L 61.1 118.133 L 61.1 112.233 L 58.1 112.233 L 58.1 106.117 L 61.1 106.117 L 61.1 100.217 L 58.1 100.217 L 58.1 94.1 L 61.1 94.1 L 61.1 88.2 L 58.1 88.2 L 58.1 82.0833 L 61.1 82.0833 L 61.1 76.1833 L 58.1 76.1833 L 58.1 70.0667 L 61.1 70.0667 L 61.1 64.1667 L 58.1 64.1667 L 58.1 58.1"
         id="path923" />
    </g>
    <g
       id="panel9075">
      <path
         style="fill:none;stroke:#000000;stroke-width:1"
         d="M 198.2 61.1 L 201.57 61.1 L 201.57 58.1 L 207.67 58.1 L 207.67 61.1 L 213.99 61.1 L 213.99 58.1 L 220.09 58.1 L 220.09 61.1 L 226.41 61.1 L 226.41 58.1 L 232.51 58.1 L 232.51 61.1 L 238.83 61.1 L 238.83 58.1 L 244.93 58.1 L 244.93 61.1 L 248.3 61.1"
         id="path926" />
      <path
         style="fill:none;stroke:#000000;stroke-width:1"
         d="M 248.3 61.1 L 248.3 64.0667 L 251.3 64.0667 L 251.3 70.1667 L 248.3 70.1667 L 248.3 76.0833 L 251.3 76.0833 L 251.3 82.1833 L 248.3 82.1833 L 248.3 88.1 L 251.3 88.1 L 251.3 94.2 L 248.3 94.2 L 248.3 100.117 L 251.3 100.117 L 251.3 106.217 L 248.3 106.217 L 248.3 112.133 L 251.3 112.133 L 251.3 118.233 L 248.3 118.233 L 248.3 121.2"
         id="path928" />
      <path
         style="fill:none;stroke:#000000;stroke-width:1"
         d="M 248.3 121.2 L 244.93 121.2 L 244.93 124.2 L 238.83 124.2 L 238.83 121.2 L 232.51 121.2 L 232.51 124.2 L 226.41 124.2 L 226.41 121.2 L 220.09 121.2 L 220.09 124.2 L 213.99 124.2 L 213.99 121.2 L 207.67 121.2 L 207.67 124.2 L 201.57 124.2 L 201.57 121.2 L 198.2 121.2"
         id="path930" />
      <path
         style="fill:none;stroke:#000000;stroke-width:1"
         d="M 198.2 121.2 L 198.2 118.233 L 195.2 118.233 L 195.2 112.133 L 198.2 112.133 L 198.2 106.217 L 195.2 106.217 L 195.2 100.117 L 198.2 100.117 L 198.2 94.2 L 195.2 94.2 L 195.2 88.1 L 198.2 88.1 L 198.2 82.1833 L 195.2 82.1833 L 195.2 76.0833 L 198.2 76.0833 L 198.2 70.1667 L 195.2 70.1667 L 195.2 64.0667 L 198.2 64.0667 L 198.2 61.1"
         id="path932" />
    </g>
    <g
       id="panel65">
      <path
         style="fill:none;stroke:#000000;stroke-width:1"
         d="M 252.3 58.1 L 259.268 58.1 L 259.268 61.1 L 265.168 61.1 L 265.168 58.1 L 272.186 58.1 L 272.186 61.1 L 278.086 61.1 L 278.086 58.1 L 285.105 58.1 L 285.105 61.1 L 291.005 61.1 L 291.005 58.1 L 298.023 58.1 L 298.023 61.1 L 303.923 61.1 L 303.923 58.1 L 310.941 58.1 L 310.941 61.1 L 316.841 61.1 L 316.841 58.1 L 323.859 58.1 L 323.859 61.1 L 329.759 61.1 L 329.759 58.1 L 336.777 58.1 L 336.777 61.1 L 342.677 61.1 L 342.677 58.1 L 349.695 58.1 L 349.695 61.1 L 355.595 61.1 L 355.595 58.1 L 362.614 58.1 L 362.614 61.1 L 368.514 61.1 L 368.514 58.1 L 375.532 58.1 L 375.532 61.1 L 381.432 61.1 L 381.432 58.1 L 388.4 58.1"
         id="path935" />
      <path
         style="fill:none;stroke:#000000;stroke-width:1"
         d="M 388.4 58.1 L 388.4 64.1667 L 385.4 64.1667 L 385.4 70.0667 L 388.4 70.0667 L 388.4 76.1833 L 385.4 76.1833 L 385.4 82.0833 L 388.4 82.0833 L 388.4 88.2 L 385.4 88.2 L 385.4 94.1 L 388.4 94.1 L 388.4 100.217 L 385.4 100.217 L 385.4 106.117 L 388.4 106.117 L 388.4 112.233 L 385.4 112.233 L 385.4 118.133 L 388.4 118.133 L 388.4 124.2"
         id="path937" />
      <path
         style="fill:none;stroke:#000000;stroke-width:1"
         d="M 388.4 124.2 L 381.432 124.2 L 381.432 121.2 L 375.532 121.2 L 375.532 124.2 L 368.514 124.2 L 368.514 121.2 L 362.614 121.2 L 362.614 124.2 L 355.595 124.2 L 355.595 121.2 L 349.695 121.2 L 349.695 124.2 L 342.677 124.2 L 342.677 121.2 L 336.777 121.2 L 336.777 124.2 L 329.759 124.2 L 329.759 121.2 L 323.859 121.2 L 323.859 124.2 L 316.841 124.2 L 316.841 121.2 L 310.941 121.2 L 310.941 124.2 L 303.923 124.2 L 303.923 121.2 L 298.023 121.2 L 298.023 124.2 L 291.005 124.2 L 291.005 121.2 L 285.105 121.2 L 285.105 124.2 L 278.086 124.2 L 278.086 121.2 L 272.186 121.2 L 272.186 124.2 L 265.168 124.2 L 265.168 121.2 L 259.268 121.2 L 259.268 124.2 L 252.3 124.2"
         id="path939" />
      <path
         style="fill:none;stroke:#000000;stroke-width:1"
         d="M 252.3 124.2 L 252.3 118.133 L 255.3 118.133 L 255.3 112.233 L 252.3 112.233 L 252.3 106.117 L 255.3 106.117 L 255.3 100.217 L 252.3 100.217 L 252.3 94.1 L 255.3 94.1 L 255.3 88.2 L 252.3 88.2 L 252.3 82.0833 L 255.3 82.0833 L 255.3 76.1833 L 252.3 76.1833 L 252.3 70.0667 L 255.3 70.0667 L 255.3 64.1667 L 252.3 64.1667 L 252.3 58.1"
         id="path941" />
    </g>
    <g
       id="panel6731">
      <path
         style="fill:none;stroke:#000000;stroke-width:1"
         d="M 58.1 4 L 64.9682 4 L 64.9682 1 L 71.0682 1 L 71.0682 4 L 77.8864 4 L 77.8864 1 L 83.9864 1 L 83.9864 4 L 90.8045 4 L 90.8045 1 L 96.9045 1 L 96.9045 4 L 103.723 4 L 103.723 1 L 109.823 1 L 109.823 4 L 116.641 4 L 116.641 1 L 122.741 1 L 122.741 4 L 129.559 4 L 129.559 1 L 135.659 1 L 135.659 4 L 142.477 4 L 142.477 1 L 148.577 1 L 148.577 4 L 155.395 4 L 155.395 1 L 161.495 1 L 161.495 4 L 168.314 4 L 168.314 1 L 174.414 1 L 174.414 4 L 181.232 4 L 181.232 1 L 187.332 1 L 187.332 4 L 194.2 4"
         id="path944" />
      <path
         style="fill:none;stroke:#000000;stroke-width:1"
         d="M 194.2 4 L 194.2 7.47 L 191.2 7.47 L 191.2 13.37 L 194.2 13.37 L 194.2 19.89 L 191.2 19.89 L 191.2 25.79 L 194.2 25.79 L 194.2 32.31 L 191.2 32.31 L 191.2 38.21 L 194.2 38.21 L 194.2 44.73 L 191.2 44.73 L 191.2 50.63 L 194.2 50.63 L 194.2 54.1"
         id="path946" />
      <path
         style="fill:none;stroke:#000000;stroke-width:1"
         d="M 194.2 54.1 L 187.332 54.1 L 187.332 57.1 L 181.232 57.1 L 181.232 54.1 L 174.414 54.1 L 174.414 57.1 L 168.314 57.1 L 168.314 54.1 L 161.495 54.1 L 161.495 57.1 L 155.395 57.1 L 155.395 54.1 L 148.577 54.1 L 148.577 57.1 L 142.477 57.1 L 142.477 54.1 L 135.659 54.1 L 135.659 57.1 L 129.559 57.1 L 129.559 54.1 L 122.741 54.1 L 122.741 57.1 L 116.641 57.1 L 116.641 54.1 L 109.823 54.1 L 109.823 57.1 L 103.723 57.1 L 103.723 54.1 L 96.9045 54.1 L 96.9045 57.1 L 90.8045 57.1 L 90.8045 54.1 L 83.9864 54.1 L 83.9864 57.1 L 77.8864 57.1 L 77.8864 54.1 L 71.0682 54.1 L 71.0682 57.1 L 64.9682 57.1 L 64.9682 54.1 L 58.1 54.1"
         id="path948" />
      <path
         style="fill:none;stroke:#000000;stroke-width:1"
         d="M 58.1 54.1 L 58.1 50.63 L 61.1 50.63 L 61.1 44.73 L 58.1 44.73 L 58.1 38.21 L 61.1 38.21 L 61.1 32.31 L 58.1 32.31 L 58.1 25.79 L 61.1 25.79 L 61.1 19.89 L 58.1 19.89 L 58.1 13.37 L 61.1 13.37 L 61.1 7.47 L 58.1 7.47 L 58.1 4"
         id="path950" />
    </g>
    <circle
       style="fill:none;stroke:#000000;stroke-width:0.2;stroke-miterlimit:4;stroke-dasharray:none;stroke-opacity:1"
       id="path2643"
       cx="115.78281"
       cy="77.985893"
       r="2.9000001" />
    <circle
       style="fill:none;stroke:#000000;stroke-width:0.2;stroke-miterlimit:4;stroke-dasharray:none;stroke-opacity:1"
       id="circle3551"
       cx="123.78281"
       cy="77.985825"
       r="2.9000001" />
    <circle
       style="fill:none;stroke:#000000;stroke-width:0.2;stroke-miterlimit:4;stroke-dasharray:none;stroke-opacity:1"
       id="circle3553"
       cx="131.78281"
       cy="77.985825"
       r="2.9000001" />
    <circle
       style="fill:none;stroke:#000000;stroke-width:0.2;stroke-miterlimit:4;stroke-dasharray:none;stroke-opacity:1"
       id="circle3555"
       cx="139.78281"
       cy="77.985825"
       r="2.9000001" />
  </g>
</svg>
