<?xml version="1.0" encoding="UTF-8" standalone="no"?>
<!-- Created with Inkscape (http://www.inkscape.org/) -->

<svg
   width="210mm"
   height="297mm"
   viewBox="0 0 210 297"
   version="1.1"
   id="svg5"
   sodipodi:docname="SimonSays_Logo.svg"
   inkscape:version="1.1.1 (3bf5ae0d25, 2021-09-20)"
   xmlns:inkscape="http://www.inkscape.org/namespaces/inkscape"
   xmlns:sodipodi="http://sodipodi.sourceforge.net/DTD/sodipodi-0.dtd"
   xmlns="http://www.w3.org/2000/svg"
   xmlns:svg="http://www.w3.org/2000/svg">
  <sodipodi:namedview
     id="namedview7"
     pagecolor="#505050"
     bordercolor="#ffffff"
     borderopacity="1"
     inkscape:pageshadow="0"
     inkscape:pageopacity="0"
     inkscape:pagecheckerboard="1"
     inkscape:document-units="mm"
     showgrid="false"
     inkscape:zoom="2.9647587"
     inkscape:cx="429.03998"
     inkscape:cy="579.97975"
     inkscape:window-width="1920"
     inkscape:window-height="1017"
     inkscape:window-x="1072"
     inkscape:window-y="-8"
     inkscape:window-maximized="1"
     inkscape:current-layer="layer1" />
  <defs
     id="defs2">
    <inkscape:path-effect
       effect="bend_path"
       id="path-effect6885"
       is_visible="true"
       lpeversion="1"
       bendpath="m 101.70913,156.07362 c 8.93389,-11.51567 20.7949,-11.54774 35.80026,0"
       prop_scale="1"
       scale_y_rel="false"
       vertical="false"
       hide_knot="false"
       bendpath-nodetypes="cc" />
  </defs>
  <g
     inkscape:label="Layer 1"
     inkscape:groupmode="layer"
     id="layer1">
    <g
       id="panel6697">
      <path
         style="fill:none;stroke:#000000;stroke-width:1"
         d="M 58.1 128.2 L 64.9682 128.2 L 64.9682 125.2 L 71.0682 125.2 L 71.0682 128.2 L 77.8864 128.2 L 77.8864 125.2 L 83.9864 125.2 L 83.9864 128.2 L 90.8045 128.2 L 90.8045 125.2 L 96.9045 125.2 L 96.9045 128.2 L 103.723 128.2 L 103.723 125.2 L 109.823 125.2 L 109.823 128.2 L 116.641 128.2 L 116.641 125.2 L 122.741 125.2 L 122.741 128.2 L 129.559 128.2 L 129.559 125.2 L 135.659 125.2 L 135.659 128.2 L 142.477 128.2 L 142.477 125.2 L 148.577 125.2 L 148.577 128.2 L 155.395 128.2 L 155.395 125.2 L 161.495 125.2 L 161.495 128.2 L 168.314 128.2 L 168.314 125.2 L 174.414 125.2 L 174.414 128.2 L 181.232 128.2 L 181.232 125.2 L 187.332 125.2 L 187.332 128.2 L 194.2 128.2"
         id="path2840" />
      <path
         style="fill:none;stroke:#000000;stroke-width:1"
         d="M 194.2 128.2 L 194.2 131.67 L 191.2 131.67 L 191.2 137.57 L 194.2 137.57 L 194.2 144.09 L 191.2 144.09 L 191.2 149.99 L 194.2 149.99 L 194.2 156.51 L 191.2 156.51 L 191.2 162.41 L 194.2 162.41 L 194.2 168.93 L 191.2 168.93 L 191.2 174.83 L 194.2 174.83 L 194.2 178.3"
         id="path2842" />
      <path
         style="fill:none;stroke:#000000;stroke-width:1"
         d="M 194.2 178.3 L 187.332 178.3 L 187.332 181.3 L 181.232 181.3 L 181.232 178.3 L 174.414 178.3 L 174.414 181.3 L 168.314 181.3 L 168.314 178.3 L 161.495 178.3 L 161.495 181.3 L 155.395 181.3 L 155.395 178.3 L 148.577 178.3 L 148.577 181.3 L 142.477 181.3 L 142.477 178.3 L 135.659 178.3 L 135.659 181.3 L 129.559 181.3 L 129.559 178.3 L 122.741 178.3 L 122.741 181.3 L 116.641 181.3 L 116.641 178.3 L 109.823 178.3 L 109.823 181.3 L 103.723 181.3 L 103.723 178.3 L 96.9045 178.3 L 96.9045 181.3 L 90.8045 181.3 L 90.8045 178.3 L 83.9864 178.3 L 83.9864 181.3 L 77.8864 181.3 L 77.8864 178.3 L 71.0682 178.3 L 71.0682 181.3 L 64.9682 181.3 L 64.9682 178.3 L 58.1 178.3"
         id="path2844" />
      <path
         style="fill:none;stroke:#000000;stroke-width:1"
         d="M 58.1 178.3 L 58.1 174.83 L 61.1 174.83 L 61.1 168.93 L 58.1 168.93 L 58.1 162.41 L 61.1 162.41 L 61.1 156.51 L 58.1 156.51 L 58.1 149.99 L 61.1 149.99 L 61.1 144.09 L 58.1 144.09 L 58.1 137.57 L 61.1 137.57 L 61.1 131.67 L 58.1 131.67 L 58.1 128.2"
         id="path2846" />
    </g>
    <g
       id="panel5706">
      <path
         style="fill:none;stroke:#000000;stroke-width:1"
         d="M 3 185.3 L 6.86818 185.3 L 6.86818 185.3 L 12.9682 185.3 L 12.9682 185.3 L 19.7864 185.3 L 19.7864 185.3 L 25.8864 185.3 L 25.8864 185.3 L 32.7045 185.3 L 32.7045 185.3 L 38.8045 185.3 L 38.8045 185.3 L 45.6227 185.3 L 45.6227 185.3 L 51.7227 185.3 L 51.7227 185.3 L 58.5409 185.3 L 58.5409 185.3 L 64.6409 185.3 L 64.6409 185.3 L 71.4591 185.3 L 71.4591 185.3 L 77.5591 185.3 L 77.5591 185.3 L 84.3773 185.3 L 84.3773 185.3 L 90.4773 185.3 L 90.4773 185.3 L 97.2955 185.3 L 97.2955 185.3 L 103.395 185.3 L 103.395 185.3 L 110.214 185.3 L 110.214 185.3 L 116.314 185.3 L 116.314 185.3 L 123.132 185.3 L 123.132 185.3 L 129.232 185.3 L 129.232 185.3 L 133.1 185.3"
         id="path2849" />
      <path
         style="fill:none;stroke:#000000;stroke-width:1"
         d="M 96.875 182.3 L 96.875 210.4 L 99.775 210.4 L 99.775 182.3 L 96.875 182.3"
         id="path2851" />
      <path
         style="fill:none;stroke:#000000;stroke-width:1"
         d="M 63.6 182.3 L 63.6 210.4 L 66.5 210.4 L 66.5 182.3 L 63.6 182.3"
         id="path2853" />
      <path
         style="fill:none;stroke:#000000;stroke-width:1"
         d="M 30.325 182.3 L 30.325 210.4 L 33.225 210.4 L 33.225 182.3 L 30.325 182.3"
         id="path2855" />
      <path
         style="fill:none;stroke:#000000;stroke-width:1"
         d="M 133.1 185.3 L 133.1 188.67 L 133.1 188.67 L 133.1 194.77 L 133.1 194.77 L 133.1 201.09 L 133.1 201.09 L 133.1 207.19 L 133.1 207.19 L 133.1 213.51 L 133.1 213.51 L 133.1 219.61 L 133.1 219.61 L 133.1 225.93 L 133.1 225.93 L 133.1 232.03 L 133.1 232.03 L 133.1 235.4"
         id="path2857" />
      <path
         style="fill:none;stroke:#000000;stroke-width:1"
         d="M 133.1 235.4 L 129.232 235.4 L 129.232 235.4 L 123.132 235.4 L 123.132 235.4 L 116.314 235.4 L 116.314 235.4 L 110.214 235.4 L 110.214 235.4 L 103.395 235.4 L 103.395 235.4 L 97.2955 235.4 L 97.2955 235.4 L 90.4773 235.4 L 90.4773 235.4 L 84.3773 235.4 L 84.3773 235.4 L 77.5591 235.4 L 77.5591 235.4 L 71.4591 235.4 L 71.4591 235.4 L 64.6409 235.4 L 64.6409 235.4 L 58.5409 235.4 L 58.5409 235.4 L 51.7227 235.4 L 51.7227 235.4 L 45.6227 235.4 L 45.6227 235.4 L 38.8045 235.4 L 38.8045 235.4 L 32.7045 235.4 L 32.7045 235.4 L 25.8864 235.4 L 25.8864 235.4 L 19.7864 235.4 L 19.7864 235.4 L 12.9682 235.4 L 12.9682 235.4 L 6.86818 235.4 L 6.86818 235.4 L 3 235.4"
         id="path2859" />
      <path
         style="fill:none;stroke:#000000;stroke-width:1"
         d="M 3 235.4 L 3 232.03 L 3 232.03 L 3 225.93 L 3 225.93 L 3 219.61 L 3 219.61 L 3 213.51 L 3 213.51 L 3 207.19 L 3 207.19 L 3 201.09 L 3 201.09 L 3 194.77 L 3 194.77 L 3 188.67 L 3 188.67 L 3 185.3"
         id="path2861" />
    </g>
    <g
       id="panel34">
      <path
         style="fill:none;stroke:#000000;stroke-width:1"
         d="M 140.1 185.3 L 143.968 185.3 L 143.968 185.3 L 150.068 185.3 L 150.068 185.3 L 156.886 185.3 L 156.886 185.3 L 162.986 185.3 L 162.986 185.3 L 169.805 185.3 L 169.805 185.3 L 175.905 185.3 L 175.905 185.3 L 182.723 185.3 L 182.723 185.3 L 188.823 185.3 L 188.823 185.3 L 195.641 185.3 L 195.641 185.3 L 201.741 185.3 L 201.741 185.3 L 208.559 185.3 L 208.559 185.3 L 214.659 185.3 L 214.659 185.3 L 221.477 185.3 L 221.477 185.3 L 227.577 185.3 L 227.577 185.3 L 234.395 185.3 L 234.395 185.3 L 240.495 185.3 L 240.495 185.3 L 247.314 185.3 L 247.314 185.3 L 253.414 185.3 L 253.414 185.3 L 260.232 185.3 L 260.232 185.3 L 266.332 185.3 L 266.332 185.3 L 270.2 185.3"
         id="path2864" />
      <path
         style="fill:none;stroke:#000000;stroke-width:1"
         d="M 233.975 182.3 L 233.975 210.4 L 236.875 210.4 L 236.875 182.3 L 233.975 182.3"
         id="path2866" />
      <path
         style="fill:none;stroke:#000000;stroke-width:1"
         d="M 200.7 182.3 L 200.7 210.4 L 203.6 210.4 L 203.6 182.3 L 200.7 182.3"
         id="path2868" />
      <path
         style="fill:none;stroke:#000000;stroke-width:1"
         d="M 167.425 182.3 L 167.425 210.4 L 170.325 210.4 L 170.325 182.3 L 167.425 182.3"
         id="path2870" />
      <path
         style="fill:none;stroke:#000000;stroke-width:1"
         d="M 270.2 185.3 L 270.2 188.67 L 270.2 188.67 L 270.2 194.77 L 270.2 194.77 L 270.2 201.09 L 270.2 201.09 L 270.2 207.19 L 270.2 207.19 L 270.2 213.51 L 270.2 213.51 L 270.2 219.61 L 270.2 219.61 L 270.2 225.93 L 270.2 225.93 L 270.2 232.03 L 270.2 232.03 L 270.2 235.4"
         id="path2872" />
      <path
         style="fill:none;stroke:#000000;stroke-width:1"
         d="M 270.2 235.4 L 266.332 235.4 L 266.332 235.4 L 260.232 235.4 L 260.232 235.4 L 253.414 235.4 L 253.414 235.4 L 247.314 235.4 L 247.314 235.4 L 240.495 235.4 L 240.495 235.4 L 234.395 235.4 L 234.395 235.4 L 227.577 235.4 L 227.577 235.4 L 221.477 235.4 L 221.477 235.4 L 214.659 235.4 L 214.659 235.4 L 208.559 235.4 L 208.559 235.4 L 201.741 235.4 L 201.741 235.4 L 195.641 235.4 L 195.641 235.4 L 188.823 235.4 L 188.823 235.4 L 182.723 235.4 L 182.723 235.4 L 175.905 235.4 L 175.905 235.4 L 169.805 235.4 L 169.805 235.4 L 162.986 235.4 L 162.986 235.4 L 156.886 235.4 L 156.886 235.4 L 150.068 235.4 L 150.068 235.4 L 143.968 235.4 L 143.968 235.4 L 140.1 235.4"
         id="path2874" />
      <path
         style="fill:none;stroke:#000000;stroke-width:1"
         d="M 140.1 235.4 L 140.1 232.03 L 140.1 232.03 L 140.1 225.93 L 140.1 225.93 L 140.1 219.61 L 140.1 219.61 L 140.1 213.51 L 140.1 213.51 L 140.1 207.19 L 140.1 207.19 L 140.1 201.09 L 140.1 201.09 L 140.1 194.77 L 140.1 194.77 L 140.1 188.67 L 140.1 188.67 L 140.1 185.3"
         id="path2876" />
    </g>
    <g
       id="panel7436">
      <path
         style="fill:none;stroke:#000000;stroke-width:1"
         d="M 4 61.1 L 7.37 61.1 L 7.37 58.1 L 13.47 58.1 L 13.47 61.1 L 19.79 61.1 L 19.79 58.1 L 25.89 58.1 L 25.89 61.1 L 32.21 61.1 L 32.21 58.1 L 38.31 58.1 L 38.31 61.1 L 44.63 61.1 L 44.63 58.1 L 50.73 58.1 L 50.73 61.1 L 54.1 61.1"
         id="path2879" />
      <path
         style="fill:none;stroke:#000000;stroke-width:1"
         d="M 54.1 61.1 L 54.1 64.0667 L 57.1 64.0667 L 57.1 70.1667 L 54.1 70.1667 L 54.1 76.0833 L 57.1 76.0833 L 57.1 82.1833 L 54.1 82.1833 L 54.1 88.1 L 57.1 88.1 L 57.1 94.2 L 54.1 94.2 L 54.1 100.117 L 57.1 100.117 L 57.1 106.217 L 54.1 106.217 L 54.1 112.133 L 57.1 112.133 L 57.1 118.233 L 54.1 118.233 L 54.1 121.2"
         id="path2881" />
      <path
         style="fill:none;stroke:#000000;stroke-width:1"
         d="M 54.1 121.2 L 50.73 121.2 L 50.73 124.2 L 44.63 124.2 L 44.63 121.2 L 38.31 121.2 L 38.31 124.2 L 32.21 124.2 L 32.21 121.2 L 25.89 121.2 L 25.89 124.2 L 19.79 124.2 L 19.79 121.2 L 13.47 121.2 L 13.47 124.2 L 7.37 124.2 L 7.37 121.2 L 4 121.2"
         id="path2883" />
      <path
         style="fill:none;stroke:#000000;stroke-width:1"
         d="M 4 121.2 L 4 118.233 L 1 118.233 L 1 112.133 L 4 112.133 L 4 106.217 L 1 106.217 L 1 100.117 L 4 100.117 L 4 94.2 L 1 94.2 L 1 88.1 L 4 88.1 L 4 82.1833 L 1 82.1833 L 1 76.0833 L 4 76.0833 L 4 70.1667 L 1 70.1667 L 1 64.0667 L 4 64.0667 L 4 61.1"
         id="path2885" />
    </g>
    <g
       id="panel8944">
      <path
         style="fill:none;stroke:#000000;stroke-width:1"
         d="M 0 260.483 L 28.1 260.483 L 28.1 263.383 L 0 263.383 L 0 260.483"
         id="path2888" />
      <path
         style="fill:none;stroke:#000000;stroke-width:1"
         d="M 0 281.517 L 28.1 281.517 L 28.1 284.417 L 0 284.417 L 0 281.517"
         id="path2890" />
      <path
         style="fill:none;stroke:#000000;stroke-width:1"
         d="M 3 242.4 L 6.37 242.4 L 6.37 242.4 L 12.47 242.4 L 12.47 242.4 L 18.79 242.4 L 18.79 242.4 L 24.89 242.4 L 24.89 242.4 L 31.21 242.4 L 31.21 242.4 L 37.31 242.4 L 37.31 242.4 L 43.63 242.4 L 43.63 242.4 L 49.73 242.4 L 49.73 242.4 L 53.1 242.4"
         id="path2892" />
      <path
         style="fill:none;stroke:#000000;stroke-width:1"
         d="M 53.1 242.4 L 53.1 245.367 L 53.1 245.367 L 53.1 251.467 L 53.1 251.467 L 53.1 257.383 L 53.1 257.383 L 53.1 263.483 L 53.1 263.483 L 53.1 269.4 L 53.1 269.4 L 53.1 275.5 L 53.1 275.5 L 53.1 281.417 L 53.1 281.417 L 53.1 287.517 L 53.1 287.517 L 53.1 293.433 L 53.1 293.433 L 53.1 299.533 L 53.1 299.533 L 53.1 302.5"
         id="path2894" />
      <path
         style="fill:none;stroke:#000000;stroke-width:1"
         d="M 53.1 302.5 L 49.73 302.5 L 49.73 302.5 L 43.63 302.5 L 43.63 302.5 L 37.31 302.5 L 37.31 302.5 L 31.21 302.5 L 31.21 302.5 L 24.89 302.5 L 24.89 302.5 L 18.79 302.5 L 18.79 302.5 L 12.47 302.5 L 12.47 302.5 L 6.37 302.5 L 6.37 302.5 L 3 302.5"
         id="path2896" />
      <path
         style="fill:none;stroke:#000000;stroke-width:1"
         d="M 3 302.5 L 3 299.533 L 3 299.533 L 3 293.433 L 3 293.433 L 3 287.517 L 3 287.517 L 3 281.417 L 3 281.417 L 3 275.5 L 3 275.5 L 3 269.4 L 3 269.4 L 3 263.483 L 3 263.483 L 3 257.383 L 3 257.383 L 3 251.467 L 3 251.467 L 3 245.367 L 3 245.367 L 3 242.4"
         id="path2898" />
    </g>
    <g
       id="panel5332">
      <path
         style="fill:none;stroke:#000000;stroke-width:1"
         d="M 57.1 260.483 L 85.2 260.483 L 85.2 263.383 L 57.1 263.383 L 57.1 260.483"
         id="path2901" />
      <path
         style="fill:none;stroke:#000000;stroke-width:1"
         d="M 57.1 281.517 L 85.2 281.517 L 85.2 284.417 L 57.1 284.417 L 57.1 281.517"
         id="path2903" />
      <path
         style="fill:none;stroke:#000000;stroke-width:1"
         d="M 60.1 242.4 L 63.47 242.4 L 63.47 242.4 L 69.57 242.4 L 69.57 242.4 L 75.89 242.4 L 75.89 242.4 L 81.99 242.4 L 81.99 242.4 L 88.31 242.4 L 88.31 242.4 L 94.41 242.4 L 94.41 242.4 L 100.73 242.4 L 100.73 242.4 L 106.83 242.4 L 106.83 242.4 L 110.2 242.4"
         id="path2905" />
      <path
         style="fill:none;stroke:#000000;stroke-width:1"
         d="M 110.2 242.4 L 110.2 245.367 L 110.2 245.367 L 110.2 251.467 L 110.2 251.467 L 110.2 257.383 L 110.2 257.383 L 110.2 263.483 L 110.2 263.483 L 110.2 269.4 L 110.2 269.4 L 110.2 275.5 L 110.2 275.5 L 110.2 281.417 L 110.2 281.417 L 110.2 287.517 L 110.2 287.517 L 110.2 293.433 L 110.2 293.433 L 110.2 299.533 L 110.2 299.533 L 110.2 302.5"
         id="path2907" />
      <path
         style="fill:none;stroke:#000000;stroke-width:1"
         d="M 110.2 302.5 L 106.83 302.5 L 106.83 302.5 L 100.73 302.5 L 100.73 302.5 L 94.41 302.5 L 94.41 302.5 L 88.31 302.5 L 88.31 302.5 L 81.99 302.5 L 81.99 302.5 L 75.89 302.5 L 75.89 302.5 L 69.57 302.5 L 69.57 302.5 L 63.47 302.5 L 63.47 302.5 L 60.1 302.5"
         id="path2909" />
      <path
         style="fill:none;stroke:#000000;stroke-width:1"
         d="M 60.1 302.5 L 60.1 299.533 L 60.1 299.533 L 60.1 293.433 L 60.1 293.433 L 60.1 287.517 L 60.1 287.517 L 60.1 281.417 L 60.1 281.417 L 60.1 275.5 L 60.1 275.5 L 60.1 269.4 L 60.1 269.4 L 60.1 263.483 L 60.1 263.483 L 60.1 257.383 L 60.1 257.383 L 60.1 251.467 L 60.1 251.467 L 60.1 245.367 L 60.1 245.367 L 60.1 242.4"
         id="path2911" />
    </g>
    <g
       id="panel7288">
      <path
         style="fill:none;stroke:#000000;stroke-width:1"
         d="M 114.2 260.483 L 142.3 260.483 L 142.3 263.383 L 114.2 263.383 L 114.2 260.483"
         id="path2914" />
      <path
         style="fill:none;stroke:#000000;stroke-width:1"
         d="M 114.2 281.517 L 142.3 281.517 L 142.3 284.417 L 114.2 284.417 L 114.2 281.517"
         id="path2916" />
      <path
         style="fill:none;stroke:#000000;stroke-width:1"
         d="M 117.2 242.4 L 120.57 242.4 L 120.57 242.4 L 126.67 242.4 L 126.67 242.4 L 132.99 242.4 L 132.99 242.4 L 139.09 242.4 L 139.09 242.4 L 145.41 242.4 L 145.41 242.4 L 151.51 242.4 L 151.51 242.4 L 157.83 242.4 L 157.83 242.4 L 163.93 242.4 L 163.93 242.4 L 167.3 242.4"
         id="path2918" />
      <path
         style="fill:none;stroke:#000000;stroke-width:1"
         d="M 167.3 242.4 L 167.3 245.367 L 167.3 245.367 L 167.3 251.467 L 167.3 251.467 L 167.3 257.383 L 167.3 257.383 L 167.3 263.483 L 167.3 263.483 L 167.3 269.4 L 167.3 269.4 L 167.3 275.5 L 167.3 275.5 L 167.3 281.417 L 167.3 281.417 L 167.3 287.517 L 167.3 287.517 L 167.3 293.433 L 167.3 293.433 L 167.3 299.533 L 167.3 299.533 L 167.3 302.5"
         id="path2920" />
      <path
         style="fill:none;stroke:#000000;stroke-width:1"
         d="M 167.3 302.5 L 163.93 302.5 L 163.93 302.5 L 157.83 302.5 L 157.83 302.5 L 151.51 302.5 L 151.51 302.5 L 145.41 302.5 L 145.41 302.5 L 139.09 302.5 L 139.09 302.5 L 132.99 302.5 L 132.99 302.5 L 126.67 302.5 L 126.67 302.5 L 120.57 302.5 L 120.57 302.5 L 117.2 302.5"
         id="path2922" />
      <path
         style="fill:none;stroke:#000000;stroke-width:1"
         d="M 117.2 302.5 L 117.2 299.533 L 117.2 299.533 L 117.2 293.433 L 117.2 293.433 L 117.2 287.517 L 117.2 287.517 L 117.2 281.417 L 117.2 281.417 L 117.2 275.5 L 117.2 275.5 L 117.2 269.4 L 117.2 269.4 L 117.2 263.483 L 117.2 263.483 L 117.2 257.383 L 117.2 257.383 L 117.2 251.467 L 117.2 251.467 L 117.2 245.367 L 117.2 245.367 L 117.2 242.4"
         id="path2924" />
    </g>
    <g
       id="panel7566">
      <path
         style="fill:none;stroke:#000000;stroke-width:1"
         d="M 58.1 58.1 L 65.0682 58.1 L 65.0682 61.1 L 70.9682 61.1 L 70.9682 58.1 L 77.9864 58.1 L 77.9864 61.1 L 83.8864 61.1 L 83.8864 58.1 L 90.9045 58.1 L 90.9045 61.1 L 96.8045 61.1 L 96.8045 58.1 L 103.823 58.1 L 103.823 61.1 L 109.723 61.1 L 109.723 58.1 L 116.741 58.1 L 116.741 61.1 L 122.641 61.1 L 122.641 58.1 L 129.659 58.1 L 129.659 61.1 L 135.559 61.1 L 135.559 58.1 L 142.577 58.1 L 142.577 61.1 L 148.477 61.1 L 148.477 58.1 L 155.495 58.1 L 155.495 61.1 L 161.395 61.1 L 161.395 58.1 L 168.414 58.1 L 168.414 61.1 L 174.314 61.1 L 174.314 58.1 L 181.332 58.1 L 181.332 61.1 L 187.232 61.1 L 187.232 58.1 L 194.2 58.1"
         id="path2927" />
      <path
         style="fill:none;stroke:#000000;stroke-width:1"
         d="M 194.2 58.1 L 194.2 64.1667 L 191.2 64.1667 L 191.2 70.0667 L 194.2 70.0667 L 194.2 76.1833 L 191.2 76.1833 L 191.2 82.0833 L 194.2 82.0833 L 194.2 88.2 L 191.2 88.2 L 191.2 94.1 L 194.2 94.1 L 194.2 100.217 L 191.2 100.217 L 191.2 106.117 L 194.2 106.117 L 194.2 112.233 L 191.2 112.233 L 191.2 118.133 L 194.2 118.133 L 194.2 124.2"
         id="path2929" />
      <path
         style="fill:none;stroke:#000000;stroke-width:1"
         d="M 194.2 124.2 L 187.232 124.2 L 187.232 121.2 L 181.332 121.2 L 181.332 124.2 L 174.314 124.2 L 174.314 121.2 L 168.414 121.2 L 168.414 124.2 L 161.395 124.2 L 161.395 121.2 L 155.495 121.2 L 155.495 124.2 L 148.477 124.2 L 148.477 121.2 L 142.577 121.2 L 142.577 124.2 L 135.559 124.2 L 135.559 121.2 L 129.659 121.2 L 129.659 124.2 L 122.641 124.2 L 122.641 121.2 L 116.741 121.2 L 116.741 124.2 L 109.723 124.2 L 109.723 121.2 L 103.823 121.2 L 103.823 124.2 L 96.8045 124.2 L 96.8045 121.2 L 90.9045 121.2 L 90.9045 124.2 L 83.8864 124.2 L 83.8864 121.2 L 77.9864 121.2 L 77.9864 124.2 L 70.9682 124.2 L 70.9682 121.2 L 65.0682 121.2 L 65.0682 124.2 L 58.1 124.2"
         id="path2931" />
      <path
         style="fill:none;stroke:#000000;stroke-width:1"
         d="M 58.1 124.2 L 58.1 118.133 L 61.1 118.133 L 61.1 112.233 L 58.1 112.233 L 58.1 106.117 L 61.1 106.117 L 61.1 100.217 L 58.1 100.217 L 58.1 94.1 L 61.1 94.1 L 61.1 88.2 L 58.1 88.2 L 58.1 82.0833 L 61.1 82.0833 L 61.1 76.1833 L 58.1 76.1833 L 58.1 70.0667 L 61.1 70.0667 L 61.1 64.1667 L 58.1 64.1667 L 58.1 58.1"
         id="path2933" />
    </g>
    <g
       id="panel6176">
      <path
         style="fill:none;stroke:#000000;stroke-width:1"
         d="M 198.2 61.1 L 201.57 61.1 L 201.57 58.1 L 207.67 58.1 L 207.67 61.1 L 213.99 61.1 L 213.99 58.1 L 220.09 58.1 L 220.09 61.1 L 226.41 61.1 L 226.41 58.1 L 232.51 58.1 L 232.51 61.1 L 238.83 61.1 L 238.83 58.1 L 244.93 58.1 L 244.93 61.1 L 248.3 61.1"
         id="path2936" />
      <path
         style="fill:none;stroke:#000000;stroke-width:1"
         d="M 248.3 61.1 L 248.3 64.0667 L 251.3 64.0667 L 251.3 70.1667 L 248.3 70.1667 L 248.3 76.0833 L 251.3 76.0833 L 251.3 82.1833 L 248.3 82.1833 L 248.3 88.1 L 251.3 88.1 L 251.3 94.2 L 248.3 94.2 L 248.3 100.117 L 251.3 100.117 L 251.3 106.217 L 248.3 106.217 L 248.3 112.133 L 251.3 112.133 L 251.3 118.233 L 248.3 118.233 L 248.3 121.2"
         id="path2938" />
      <path
         style="fill:none;stroke:#000000;stroke-width:1"
         d="M 248.3 121.2 L 244.93 121.2 L 244.93 124.2 L 238.83 124.2 L 238.83 121.2 L 232.51 121.2 L 232.51 124.2 L 226.41 124.2 L 226.41 121.2 L 220.09 121.2 L 220.09 124.2 L 213.99 124.2 L 213.99 121.2 L 207.67 121.2 L 207.67 124.2 L 201.57 124.2 L 201.57 121.2 L 198.2 121.2"
         id="path2940" />
      <path
         style="fill:none;stroke:#000000;stroke-width:1"
         d="M 198.2 121.2 L 198.2 118.233 L 195.2 118.233 L 195.2 112.133 L 198.2 112.133 L 198.2 106.217 L 195.2 106.217 L 195.2 100.117 L 198.2 100.117 L 198.2 94.2 L 195.2 94.2 L 195.2 88.1 L 198.2 88.1 L 198.2 82.1833 L 195.2 82.1833 L 195.2 76.0833 L 198.2 76.0833 L 198.2 70.1667 L 195.2 70.1667 L 195.2 64.0667 L 198.2 64.0667 L 198.2 61.1"
         id="path2942" />
    </g>
    <g
       id="panel8497">
      <path
         style="fill:none;stroke:#000000;stroke-width:1"
         d="M 252.3 58.1 L 259.268 58.1 L 259.268 61.1 L 265.168 61.1 L 265.168 58.1 L 272.186 58.1 L 272.186 61.1 L 278.086 61.1 L 278.086 58.1 L 285.105 58.1 L 285.105 61.1 L 291.005 61.1 L 291.005 58.1 L 298.023 58.1 L 298.023 61.1 L 303.923 61.1 L 303.923 58.1 L 310.941 58.1 L 310.941 61.1 L 316.841 61.1 L 316.841 58.1 L 323.859 58.1 L 323.859 61.1 L 329.759 61.1 L 329.759 58.1 L 336.777 58.1 L 336.777 61.1 L 342.677 61.1 L 342.677 58.1 L 349.695 58.1 L 349.695 61.1 L 355.595 61.1 L 355.595 58.1 L 362.614 58.1 L 362.614 61.1 L 368.514 61.1 L 368.514 58.1 L 375.532 58.1 L 375.532 61.1 L 381.432 61.1 L 381.432 58.1 L 388.4 58.1"
         id="path2945" />
      <path
         style="fill:none;stroke:#000000;stroke-width:1"
         d="M 388.4 58.1 L 388.4 64.1667 L 385.4 64.1667 L 385.4 70.0667 L 388.4 70.0667 L 388.4 76.1833 L 385.4 76.1833 L 385.4 82.0833 L 388.4 82.0833 L 388.4 88.2 L 385.4 88.2 L 385.4 94.1 L 388.4 94.1 L 388.4 100.217 L 385.4 100.217 L 385.4 106.117 L 388.4 106.117 L 388.4 112.233 L 385.4 112.233 L 385.4 118.133 L 388.4 118.133 L 388.4 124.2"
         id="path2947" />
      <path
         style="fill:none;stroke:#000000;stroke-width:1"
         d="M 388.4 124.2 L 381.432 124.2 L 381.432 121.2 L 375.532 121.2 L 375.532 124.2 L 368.514 124.2 L 368.514 121.2 L 362.614 121.2 L 362.614 124.2 L 355.595 124.2 L 355.595 121.2 L 349.695 121.2 L 349.695 124.2 L 342.677 124.2 L 342.677 121.2 L 336.777 121.2 L 336.777 124.2 L 329.759 124.2 L 329.759 121.2 L 323.859 121.2 L 323.859 124.2 L 316.841 124.2 L 316.841 121.2 L 310.941 121.2 L 310.941 124.2 L 303.923 124.2 L 303.923 121.2 L 298.023 121.2 L 298.023 124.2 L 291.005 124.2 L 291.005 121.2 L 285.105 121.2 L 285.105 124.2 L 278.086 124.2 L 278.086 121.2 L 272.186 121.2 L 272.186 124.2 L 265.168 124.2 L 265.168 121.2 L 259.268 121.2 L 259.268 124.2 L 252.3 124.2"
         id="path2949" />
      <path
         style="fill:none;stroke:#000000;stroke-width:1"
         d="M 252.3 124.2 L 252.3 118.133 L 255.3 118.133 L 255.3 112.233 L 252.3 112.233 L 252.3 106.117 L 255.3 106.117 L 255.3 100.217 L 252.3 100.217 L 252.3 94.1 L 255.3 94.1 L 255.3 88.2 L 252.3 88.2 L 252.3 82.0833 L 255.3 82.0833 L 255.3 76.1833 L 252.3 76.1833 L 252.3 70.0667 L 255.3 70.0667 L 255.3 64.1667 L 252.3 64.1667 L 252.3 58.1"
         id="path2951" />
    </g>
    <g
       id="panel5310">
      <path
         style="fill:none;stroke:#000000;stroke-width:1"
         d="M 58.1 4 L 64.9682 4 L 64.9682 1 L 71.0682 1 L 71.0682 4 L 77.8864 4 L 77.8864 1 L 83.9864 1 L 83.9864 4 L 90.8045 4 L 90.8045 1 L 96.9045 1 L 96.9045 4 L 103.723 4 L 103.723 1 L 109.823 1 L 109.823 4 L 116.641 4 L 116.641 1 L 122.741 1 L 122.741 4 L 129.559 4 L 129.559 1 L 135.659 1 L 135.659 4 L 142.477 4 L 142.477 1 L 148.577 1 L 148.577 4 L 155.395 4 L 155.395 1 L 161.495 1 L 161.495 4 L 168.314 4 L 168.314 1 L 174.414 1 L 174.414 4 L 181.232 4 L 181.232 1 L 187.332 1 L 187.332 4 L 194.2 4"
         id="path2954" />
      <path
         style="fill:none;stroke:#000000;stroke-width:1"
         d="M 194.2 4 L 194.2 7.47 L 191.2 7.47 L 191.2 13.37 L 194.2 13.37 L 194.2 19.89 L 191.2 19.89 L 191.2 25.79 L 194.2 25.79 L 194.2 32.31 L 191.2 32.31 L 191.2 38.21 L 194.2 38.21 L 194.2 44.73 L 191.2 44.73 L 191.2 50.63 L 194.2 50.63 L 194.2 54.1"
         id="path2956" />
      <path
         style="fill:none;stroke:#000000;stroke-width:1"
         d="M 194.2 54.1 L 187.332 54.1 L 187.332 57.1 L 181.232 57.1 L 181.232 54.1 L 174.414 54.1 L 174.414 57.1 L 168.314 57.1 L 168.314 54.1 L 161.495 54.1 L 161.495 57.1 L 155.395 57.1 L 155.395 54.1 L 148.577 54.1 L 148.577 57.1 L 142.477 57.1 L 142.477 54.1 L 135.659 54.1 L 135.659 57.1 L 129.559 57.1 L 129.559 54.1 L 122.741 54.1 L 122.741 57.1 L 116.641 57.1 L 116.641 54.1 L 109.823 54.1 L 109.823 57.1 L 103.723 57.1 L 103.723 54.1 L 96.9045 54.1 L 96.9045 57.1 L 90.8045 57.1 L 90.8045 54.1 L 83.9864 54.1 L 83.9864 57.1 L 77.8864 57.1 L 77.8864 54.1 L 71.0682 54.1 L 71.0682 57.1 L 64.9682 57.1 L 64.9682 54.1 L 58.1 54.1"
         id="path2958" />
      <path
         style="fill:none;stroke:#000000;stroke-width:1"
         d="M 58.1 54.1 L 58.1 50.63 L 61.1 50.63 L 61.1 44.73 L 58.1 44.73 L 58.1 38.21 L 61.1 38.21 L 61.1 32.31 L 58.1 32.31 L 58.1 25.79 L 61.1 25.79 L 61.1 19.89 L 58.1 19.89 L 58.1 13.37 L 61.1 13.37 L 61.1 7.47 L 58.1 7.47 L 58.1 4"
         id="path2960" />
    </g>
    <path
       id="path7433"
       style="fill:#333333;stroke-width:0.0631042"
       d="m 95.44819,138.48198 -0.236161,0.47026 c -1.030431,2.05416 -1.342337,4.32259 -0.911056,6.62595 0.424389,2.26659 1.622986,4.67777 3.423047,6.88744 0.772901,0.94876 0.854625,1.12128 0.438216,0.9219 -0.420809,-0.20149 -1.299742,-0.9098 -1.971974,-1.58905 -0.782349,-0.7905 -1.181637,-1.28764 -1.627807,-2.02571 l -0.30644,-0.50643 0.04237,0.37878 c 0.1334,1.19053 0.443227,2.26535 0.946198,3.28146 0.436329,0.88148 0.980646,1.60278 1.809707,2.39933 1.092261,1.04944 2.309739,1.82272 4.16254,2.64429 2.23444,0.99079 4.58054,1.64462 10.78177,3.00291 4.817,1.0551 6.47331,1.47462 8.47184,2.14613 0.92402,0.31047 1.76738,0.64012 2.54403,0.98857 a 5,5 0 0 0 -0.0692,0.51986 c -0.74297,-0.23305 -1.55554,-0.45392 -2.46445,-0.66404 -1.35617,-0.31351 -2.6107,-0.53555 -5.92625,-1.04903 -7.23003,-1.11969 -8.90282,-1.47102 -11.24738,-2.36213 -1.44251,-0.54825 -2.47337,-1.16276 -3.361555,-2.0035 -0.294939,-0.27919 -0.535884,-0.48967 -0.535884,-0.46767 0,0.1065 0.477478,0.96829 0.795819,1.43609 0.9567,1.40588 2.08647,2.34175 3.83801,3.17965 2.21495,1.0596 4.7565,1.58204 9.94306,2.0438 0.78091,0.0695 2.22926,0.19871 3.21841,0.28681 2.37623,0.21171 4.22223,0.46014 5.79241,0.7891 a 5,5 0 0 0 0.24598,0.92811 c -1.50727,-0.0601 -3.72079,-0.0895 -6.82749,-0.092 -2.36084,-0.002 -4.03406,-0.029 -4.38526,-0.0718 -0.77075,-0.0938 -1.9145,-0.38884 -2.41535,-0.62322 -0.22668,-0.10601 -0.42739,-0.17723 -0.44649,-0.15813 -0.0191,0.0191 0.14821,0.20941 0.37207,0.42272 1.0421,0.99299 2.55343,1.67632 4.38475,1.98334 1.01694,0.17049 2.9312,0.15649 4.02197,-0.0295 0.44328,-0.0755 0.86156,-0.13746 0.92915,-0.13746 0.22859,0 0.0653,0.16574 -0.48628,0.49455 -0.87457,0.52136 -1.78159,0.83973 -3.01532,1.0573 -0.23529,0.0415 -0.2421,0.0478 -0.0951,0.0956 0.0868,0.0285 0.56956,0.0424 1.07281,0.0315 1.07947,-0.0234 1.48758,-0.10707 4.20646,-0.86351 1.52129,-0.42325 2.54651,-0.6938 3.3507,-0.87592 a 5,5 0 0 0 4.19458,2.0283 5,5 0 0 0 3.84575,-2.02933 c 0.8049,0.18211 1.83137,0.45281 3.35587,0.87695 2.71888,0.75644 3.12648,0.84015 4.20595,0.86351 0.50325,0.0109 0.98603,-0.003 1.0728,-0.0315 0.14703,-0.0478 0.14075,-0.0541 -0.0946,-0.0956 -1.23373,-0.21757 -2.14126,-0.53594 -3.01583,-1.0573 -0.55158,-0.32881 -0.71434,-0.49455 -0.48576,-0.49455 0.0676,0 0.48534,0.0619 0.92862,0.13746 1.09077,0.186 3.00557,0.2 4.0225,0.0295 1.83132,-0.30702 3.34213,-0.99035 4.38423,-1.98334 0.22385,-0.21331 0.39168,-0.40361 0.37258,-0.42272 -0.0191,-0.0191 -0.22034,0.0521 -0.447,0.15813 -0.50086,0.23438 -1.64409,0.52939 -2.41484,0.62322 -0.3512,0.0428 -2.02494,0.07 -4.38578,0.0718 -3.11098,0.002 -5.32698,0.0323 -6.83421,0.0925 a 5,5 0 0 0 0.24753,-0.92759 c 1.57138,-0.32952 3.41911,-0.57818 5.7981,-0.79013 0.98916,-0.0881 2.4375,-0.21728 3.21841,-0.28681 5.18657,-0.46176 7.72811,-0.98421 9.94306,-2.0438 1.75154,-0.8379 2.88131,-1.77378 3.83801,-3.17965 0.31834,-0.4678 0.79582,-1.32958 0.79582,-1.43609 0,-0.022 -0.24147,0.1885 -0.53641,0.46767 -0.88817,0.84074 -1.91903,1.45525 -3.36155,2.0035 -2.34455,0.89111 -4.01681,1.24244 -11.24686,2.36213 -3.31554,0.51348 -4.5706,0.73552 -5.92677,1.04903 -0.91563,0.21167 -1.73375,0.43419 -2.48098,0.66921 l -0.0227,-0.32091 a 5,5 0 0 0 -0.0362,-0.20154 c 0.77843,-0.34958 1.62415,-0.67981 2.55075,-0.99115 1.99853,-0.67151 3.65431,-1.09103 8.47131,-2.14613 6.20123,-1.35829 8.54734,-2.01212 10.78177,-3.00291 1.8528,-0.82157 3.07028,-1.59485 4.16254,-2.64429 0.82906,-0.79655 1.37338,-1.51785 1.80971,-2.39933 0.50297,-1.01611 0.81279,-2.09093 0.9462,-3.28146 l 0.0424,-0.37878 -0.30592,0.50643 c -0.44617,0.73807 -0.84598,1.23521 -1.62833,2.02571 -0.67223,0.67925 -1.55116,1.38756 -1.97197,1.58905 -0.41641,0.19938 -0.33417,0.0269 0.43873,-0.9219 1.80006,-2.20967 2.99814,-4.62085 3.42253,-6.88744 0.43128,-2.30336 0.11937,-4.57179 -0.91105,-6.62595 l -0.23565,-0.47026 -0.0357,1.4795 c -0.0379,1.59145 -0.12528,2.32904 -0.42478,3.57704 -0.84378,3.51594 -3.09074,6.49901 -6.68797,8.87905 -1.15973,0.76731 -1.65103,1.05065 -2.99723,1.72702 -2.15812,1.0843 -3.77506,1.73102 -9.33948,3.73621 -5.03533,1.81452 -7.24226,2.77202 -9.12503,3.97443 a 5,5 0 0 0 -4.4018,-1.81798 5,5 0 0 0 -3.3507,1.81592 c -1.88206,-1.20144 -4.08898,-2.1589 -9.1214,-3.97237 -5.56442,-2.00519 -7.18137,-2.65191 -9.33948,-3.73621 -1.3462,-0.67637 -1.83803,-0.95971 -2.99775,-1.72702 -3.597237,-2.38004 -5.843677,-5.36311 -6.687457,-8.87905 -0.2995,-1.248 -0.387397,-1.98559 -0.425296,-3.57704 z" />
    <path
       style="fill:#333333"
       id="path7975"
       sodipodi:type="arc"
       sodipodi:cx="227"
       sodipodi:cy="227.36253"
       sodipodi:rx="7"
       sodipodi:ry="7.3625298"
       sodipodi:start="0"
       sodipodi:end="6.1431052"
       sodipodi:open="true"
       sodipodi:arc-type="arc"
       d="m 234,227.36253 a 7,7.3625298 0 0 1 -6.75491,7.35802 7,7.3625298 0 0 1 -7.22793,-6.84277 7,7.3625298 0 0 1 6.24877,-7.83718 7,7.3625298 0 0 1 7.6655,6.29396" />
    <path
       id="path6860"
       style="font-size:11.376px;line-height:1.25;font-family:Precious;-inkscape-font-specification:'Precious, Normal';white-space:pre;inline-size:38.2079;fill:#333333;stroke-width:0.284401"
       d="m 129.53823,139.9853 c -1.53254,0.0107 -2.86653,0.41479 -3.86385,1.15496 -0.12201,0.006 -0.26733,0.0203 -0.43511,0.045 -0.54255,0.10808 -1.32649,0.32944 -2.25516,0.69453 -3.02447,1.52935 -3.51237,3.46225 -2.70319,5.13871 l 0.0646,0.13332 c 0.59779,1.23848 1.67278,2.04372 2.9192,2.67323 1.03529,0.59899 1.9017,0.88001 2.81172,0.87901 0.0277,-0.003 0.0553,-0.007 0.0832,-0.01 0.18541,-0.0237 0.37156,-0.0435 0.5581,-0.0599 1.62528,-0.14273 2.93597,-0.78653 4.14393,-2.24896 0.012,0.001 0.0241,0.002 0.0362,0.004 -0.0383,0.24041 0.0918,0.66705 0.3421,1.31516 0.59876,1.15492 1.28235,1.84327 2.24792,2.10892 0.42772,0.0137 0.69543,-0.0956 0.79323,-0.34572 0.0459,-0.26414 -0.0325,-0.42574 -0.23461,-0.48214 -0.0149,-0.004 -0.03,-0.008 -0.045,-0.0124 -0.0149,0.007 -0.03,0.0142 -0.045,0.0212 -0.0188,0.0841 -0.0377,0.16808 -0.0568,0.25218 -0.0758,0.20409 -0.3356,0.23847 -0.77669,0.12609 -0.11624,-0.0517 -0.23268,-0.10255 -0.34934,-0.15245 -1.23746,-0.76515 -1.76391,-1.76311 -1.46761,-3.16828 l 0.0522,-0.24805 c 0.33304,-0.60214 0.68379,-1.20035 1.05161,-1.7942 0.039,-0.1625 0.36973,-0.20253 0.9896,-0.0858 0.26778,0.0864 0.53389,0.17623 0.79789,0.26923 0.0589,-0.0346 0.11795,-0.0691 0.17725,-0.10335 -0.10355,-0.0945 -0.39635,-0.22228 -0.87643,-0.36329 -0.30001,-0.0316 -0.60017,-0.0593 -0.90021,-0.0827 l -0.0553,-0.009 c 0.32692,-0.54326 0.66691,-1.08367 1.01957,-1.62057 0.54137,-0.68708 1.27147,-1.15147 2.19005,-1.36942 0.39161,0.10988 0.77954,0.22522 1.16376,0.34571 0.0857,0.0211 0.17091,0.0425 0.25631,0.0641 1.46411,0.37053 2.83712,0.29486 4.26072,-0.27233 0.0163,-0.033 -0.0369,-0.09 -0.16071,-0.17002 -0.89629,0.33091 -1.75148,0.36925 -2.61844,0.12454 -0.60441,-0.20058 -1.15478,-0.40528 -1.6521,-0.6196 -2.81539,-1.4149 -5.09656,-1.97922 -6.02909,-2.05672 -0.25443,-0.0212 -0.50989,-0.0397 -0.76636,-0.0563 l 5.1e-4,0.001 c -0.22663,-0.0147 -0.44975,-0.0212 -0.66869,-0.0196 z m -0.89348,0.33744 c 0.0555,-5.2e-4 0.1106,-1.9e-4 0.16588,0.002 0.21544,0.007 0.43032,0.0157 0.6444,0.0258 0.3732,0.0526 0.7429,0.1102 1.10898,0.1726 2.08968,0.72812 3.9814,1.59896 4.74286,1.91978 l -0.0124,0.0408 c -1.74565,0.48091 -2.81574,1.23513 -3.30574,2.12132 -0.29775,-0.11074 -0.59944,-0.21702 -0.90486,-0.31936 -0.0614,-0.0568 -0.14015,-0.36176 -0.26148,-0.92191 -0.77976,-1.46736 -2.34869,-2.29435 -4.55631,-2.21795 -0.0405,0.001 -0.0811,0.002 -0.12144,0.004 l -0.002,-0.031 c 0.80978,-0.5248 1.6687,-0.78797 2.50166,-0.79582 z m -4.73718,0.2279 c -0.7089,0.69796 -1.51873,1.14463 -2.51148,1.39629 -0.71618,0.15261 -1.36389,0.2833 -1.97507,0.38654 -3.54135,0.42136 -5.95565,1.41213 -6.70967,1.86087 -0.22152,0.13185 -0.44105,0.26657 -0.65784,0.40308 -1.534,0.96616 -2.39907,2.1821 -2.59622,3.45819 -0.34266,0.29484 -0.8808,0.9371 -1.4671,1.90427 -1.19032,2.6407 -0.36299,4.44266 1.44643,5.43171 l 0.14314,0.078 c 1.31782,0.72035 2.78826,0.86334 4.34134,0.64802 1.38032,-0.11889 2.39978,-0.49753 3.19515,-1.21439 0.13953,-0.12576 0.28058,-0.24965 0.42271,-0.37156 1.25802,-1.07903 1.66927,-2.32406 1.47072,-4.08812 0.0101,-0.006 0.0202,-0.011 0.0305,-0.017 0.15457,0.2036 0.57024,0.44127 1.23144,0.7891 1.28449,0.53256 2.19838,0.68928 2.97657,0.4315 0.2793,-0.19506 0.38702,-0.40619 0.29972,-0.65113 -0.12967,-0.23164 -0.28179,-0.32335 -0.4532,-0.26975 -0.0127,0.004 -0.0251,0.007 -0.0377,0.0114 -0.006,0.0128 -0.0121,0.0254 -0.0171,0.0382 0.0405,0.0752 0.0808,0.15094 0.12092,0.22635 0.0779,0.19769 -0.0704,0.34789 -0.42995,0.48058 -0.10978,0.0181 -0.21971,0.0377 -0.33021,0.0589 -1.30338,0.0429 -2.47272,-0.37394 -3.30832,-1.59836 l -0.14676,-0.21497 c -0.20025,-0.63752 -0.37827,-1.28184 -0.5333,-1.9327 -0.0903,-0.14267 0.13774,-0.36072 0.71572,-0.61443 0.27564,-0.0823 0.55216,-0.15959 0.8294,-0.231 0.0222,-0.058 0.0452,-0.11624 0.0682,-0.17414 -0.14981,-0.0163 -0.47824,0.0441 -0.96377,0.20205 -0.26228,0.14143 -0.52075,0.28744 -0.77515,0.43822 -0.0168,0.008 -0.0334,0.0163 -0.0501,0.0243 -0.14782,-0.59016 -0.2776,-1.18536 -0.38861,-1.78543 -0.0681,-0.81721 0.19805,-1.57659 0.84233,-2.24327 0.4233,-0.13033 0.85076,-0.25106 1.28209,-0.36225 0.092,-0.0292 0.18387,-0.058 0.27647,-0.0863 1.58612,-0.48535 2.83233,-1.21278 3.93877,-2.35025 -0.005,-0.0348 -0.0981,-0.0565 -0.28008,-0.0625 z m 2.44223,0.786 c 1.38221,0.0212 2.48975,0.36301 3.26698,0.94102 0.76756,0.7036 1.06117,1.332 0.98857,1.8247 l -0.005,0.031 c -0.12054,-0.0598 -0.30029,-0.1002 -0.53795,-0.1173 -0.1486,-0.0106 -0.29741,-0.0199 -0.44649,-0.0289 -0.44237,0.0233 -0.66576,0.0765 -0.67076,0.14624 0.19812,0.007 0.39542,0.0168 0.59273,0.0279 0.35517,0.0199 0.71831,0.10563 1.07952,0.25786 -0.0995,0.33499 -0.19729,0.67058 -0.29249,1.00614 -0.0325,-0.003 -0.0652,-0.005 -0.0977,-0.008 -0.1493,-0.0755 -0.26057,-0.19933 -0.33487,-0.37259 0.0475,-0.11569 0.0952,-0.23125 0.14366,-0.34675 l 0.0315,-0.2496 c -0.0637,-0.0398 -0.12731,-0.0796 -0.19172,-0.11885 -0.18634,-0.0125 -0.3174,0.10983 -0.3917,0.36432 0.008,0.10884 0.0173,0.21772 0.0243,0.32659 -0.2691,0.20134 -0.53955,0.3428 -0.81597,0.4253 -0.11192,-0.003 -0.20963,-0.14863 -0.29973,-0.43667 l 0.0109,-0.20929 c 0.008,-0.15312 0.11335,-0.32997 0.3235,-0.52606 -0.0148,-0.001 -0.0296,-0.002 -0.0444,-0.002 -0.48926,0.23751 -0.72681,0.48847 -0.73381,0.73174 l -0.002,0.0734 c -0.007,0.23763 0.0833,0.37716 0.26717,0.42116 l -0.002,0.0419 c -0.15343,-0.002 -0.30718,-0.003 -0.46095,-0.002 -0.13015,-0.0133 -0.26077,-0.0257 -0.39171,-0.0372 -0.77932,-0.19031 -1.38556,-0.46021 -1.81591,-0.85112 -0.39381,-0.34471 -0.64586,-0.78602 -0.71416,-1.33893 -0.0677,-0.5481 0.0689,-1.06095 0.46147,-1.53376 0.12383,-0.15024 0.27366,-0.29351 0.44958,-0.42943 l 5.2e-4,5.2e-4 c 0.2085,-0.0103 0.41129,-0.0139 0.60875,-0.0109 z m -1.12552,0.0837 c -0.59511,0.74215 -0.79778,1.39775 -0.72088,1.93425 0.0911,0.2492 0.17983,0.49918 0.26613,0.74983 0.25498,0.33029 0.52163,0.60922 0.79995,0.83664 0.63414,0.53402 1.33669,0.77963 2.17816,0.77463 0.12468,-4.2e-4 0.24913,-4.9e-4 0.37362,5.1e-4 0.18498,-0.0124 0.37026,-0.0225 0.55553,-0.0315 -0.003,0.049 0.0731,0.0751 0.22892,0.0811 0.0963,0.004 0.19267,0.007 0.28887,0.0124 0.30241,0.0145 0.61978,-0.035 0.96118,-0.14728 l -0.01,0.0729 c -0.70783,0.90163 -1.4692,1.51038 -2.31201,1.85622 0.0192,-0.68055 -0.51987,-1.12636 -1.7017,-1.18236 -0.063,0.005 -0.12614,0.009 -0.18914,0.0145 -0.0811,0.007 -0.16229,0.0169 -0.24339,0.0305 -0.50866,0.0823 -1.00615,0.31255 -1.45108,0.68161 -0.38016,-0.24625 -0.64274,-0.59171 -0.75396,-1.05316 -0.0639,-0.26492 -0.0585,-0.51885 0.0258,-0.76327 -0.03,-0.0441 -0.12228,-0.0765 -0.27802,-0.0941 -0.1106,0.0444 -0.12129,0.33987 -0.0274,0.88367 0.1131,0.43374 0.39255,0.82682 0.7984,1.20664 -0.64625,0.64652 -0.79106,1.31226 -0.59169,1.94717 0.0691,0.22013 0.18235,0.42172 0.3328,0.60824 l 0.0119,0.0398 c -1.32308,-0.67049 -2.45169,-1.48171 -3.03392,-2.75901 0,0 0,-5.2e-4 0,-5.2e-4 -0.30652,-0.67271 -0.39806,-1.35139 -0.20102,-2.0438 -0.058,-0.14086 0.16291,-0.74122 0.86041,-1.69964 1.2591,-1.17076 2.63198,-1.81138 3.75894,-1.94716 0.0243,-0.003 0.0491,-0.006 0.0734,-0.009 z m -7.0714,2.08308 0.0191,0.0377 c -1.15364,1.31931 -1.43019,2.5156 -1.15083,3.44475 -0.32103,0.0873 -0.64162,0.18103 -0.9617,0.28112 -0.0902,-0.007 -0.38985,-0.18889 -0.91674,-0.53382 -1.75551,-0.64013 -3.64395,-0.33097 -5.23999,0.99013 -0.029,0.0241 -0.0583,0.0481 -0.0873,0.0723 l -0.0253,-0.0227 c 0.21503,-0.91088 0.70595,-1.63396 1.41542,-2.127 0.17247,-0.11986 0.3466,-0.23824 0.52245,-0.35501 0.33364,-0.17762 0.67121,-0.35004 1.01234,-0.51625 2.36434,-0.71145 4.38492,-1.06831 5.41259,-1.27124 z m 25.68577,0.0971 c -0.69721,8e-4 -1.44926,0.14863 -2.23811,0.44855 -0.46976,-0.15388 -1.29858,-0.27364 -2.44326,-0.30644 -2.88834,0.254 -4.44743,1.38893 -4.96455,3.00498 l -0.0884,0.27544 c -0.54841,1.71384 -0.0417,3.2758 1.17357,4.72013 0.31962,0.54782 0.95744,0.99181 1.94924,1.38389 0.20103,0.0795 0.40198,0.1607 0.60358,0.2434 1.1216,0.46012 2.33214,0.54928 3.68608,0.26303 0.15606,1.48233 0.73049,2.46549 1.82004,3.0055 0.46872,0.11669 0.78944,0.063 0.9586,-0.16588 0.11256,-0.24903 0.0682,-0.42534 -0.13384,-0.5271 -0.0112,-0.006 -0.0223,-0.011 -0.0336,-0.017 -0.0216,0.002 -0.0435,0.003 -0.0651,0.005 -0.0382,0.0803 -0.076,0.16062 -0.11421,0.24082 -0.13721,0.18791 -0.4368,0.16575 -0.89659,-0.0615 -0.34345,-0.23598 -0.60151,-0.47812 -0.77617,-0.72864 -0.42204,-0.4945 -0.59155,-1.09581 -0.51315,-1.80815 1.4368,-0.43786 2.79295,-1.49373 3.98425,-3.21893 0.0513,-0.0743 0.32127,-0.11025 0.80977,-0.10025 1.84704,-0.21145 3.02077,-0.6101 3.53725,-1.30587 l 0.18087,-0.24339 c 0.23985,-0.53853 0.1538,-0.92983 -0.26665,-1.16531 -0.0411,-0.0231 -0.0822,-0.0462 -0.12351,-0.0692 -1.08885,-0.60661 -2.65213,-0.0444 -4.57543,1.71514 -0.13648,-0.10844 -0.27377,-0.21634 -0.41186,-0.32401 -0.0752,-0.0361 -0.0187,-0.34808 0.16278,-0.93845 -0.1333,-1.70439 -1.00294,-2.91044 -2.5492,-3.50314 -0.17443,-0.0669 -0.34918,-0.13272 -0.52503,-0.19792 1.20562,-0.517 2.39554,-0.53874 3.47834,-0.0651 0.16304,0.0713 0.32528,0.14341 0.48679,0.21601 0.75758,0.34048 1.45675,1.1211 2.02262,2.32854 0.0128,0.006 0.0253,0.0136 0.0382,0.0196 0.0684,-0.007 0.13717,-0.0126 0.20567,-0.0196 -0.45442,-1.24657 -1.20276,-2.10857 -2.1978,-2.55436 -0.15771,-0.0707 -0.31623,-0.14041 -0.47542,-0.20981 v -5.2e-4 c -0.51823,-0.22608 -1.09065,-0.34022 -1.70584,-0.33951 z m -4.2478,0.47284 c 0.4757,0.005 0.98205,0.0539 1.51463,0.14986 0.019,0.007 0.0378,0.0132 0.0568,0.0202 -0.43226,0.32009 -0.7085,0.61256 -0.83613,0.86919 l -0.11834,0.2372 c -0.23014,0.46183 -0.27147,0.94925 -0.14572,1.46347 0.18077,0.77627 0.74902,1.50157 1.68827,2.21692 0.26898,0.39731 0.48205,0.63399 0.65577,0.71159 0.0864,0.0386 0.1727,0.0778 0.2589,0.11678 0.20517,0.0928 0.42107,0.15099 0.64957,0.17519 0.0123,0.006 0.0245,0.012 0.0367,0.017 -0.90697,0.58848 -1.84889,0.88592 -2.82773,0.91002 0.34171,-0.58243 0.0361,-1.1848 -0.97772,-1.75183 -0.0538,-0.0208 -0.10785,-0.0413 -0.16175,-0.062 -0.5549,-0.21249 -1.28234,-0.26244 -2.14354,-0.12816 -0.10143,-0.50196 -0.0835,-0.92874 0.0739,-1.2826 0.16439,-0.24841 0.33026,-0.49643 0.49713,-0.74415 -0.0335,-0.0487 -0.067,-0.0976 -0.10077,-0.14624 -0.31355,0.16017 -0.53222,0.3928 -0.66249,0.6935 -0.20835,0.48106 -0.22554,0.99403 -0.077,1.53944 -0.91483,0.28881 -1.46703,0.75026 -1.70997,1.33842 -0.0777,0.18809 -0.11754,0.43249 -0.12454,0.7338 l -0.0171,0.0398 c -0.0112,-0.004 -0.0224,-0.006 -0.0336,-0.0103 -0.81621,-1.30504 -1.13142,-2.57491 -0.71055,-3.83233 l 0.092,-0.27491 c 0.4299,-1.28446 1.51272,-2.27461 3.4463,-2.80397 0.50403,-0.13473 1.06528,-0.20192 1.6769,-0.19585 z m 1.97197,0.27853 c 0.27514,0.10002 0.54885,0.20214 0.82062,0.30645 0.60959,0.23395 1.16251,0.63759 1.63815,1.20612 0.80554,1.1292 0.94656,2.02364 0.5519,2.63602 l -0.0424,0.0661 c -0.20207,-0.0951 -0.40498,-0.18895 -0.60875,-0.28215 -0.41004,-0.1301 -0.63631,-0.16002 -0.67541,-0.0961 0.17476,0.0776 0.34886,0.15603 0.52244,0.23513 0.18927,0.11493 0.37776,0.23062 0.56483,0.34727 0.0168,0.008 0.0333,0.0152 0.0501,0.0232 -0.20446,0.25795 -0.40832,0.51616 -0.61184,0.77463 -0.0693,0.10787 -0.25966,0.0879 -0.57361,-0.0558 -0.31008,-0.14197 -0.62216,-0.28174 -0.93535,-0.41858 0.0171,-0.0897 0.0344,-0.17943 0.0512,-0.26923 l 0.12092,-0.20257 c 0.0807,-0.13465 0.26401,-0.26222 0.55088,-0.37931 -0.0128,-0.006 -0.026,-0.0115 -0.0388,-0.0165 -0.54895,0.051 -0.88869,0.19853 -1.02475,0.42995 l -0.0739,0.12557 c -1.3827,-1.1078 -1.86949,-2.20998 -1.27331,-3.38377 l 0.015,-0.0294 c 0.18033,-0.35502 0.50105,-0.69673 0.97203,-1.017 z m -10.5699,0.20826 c 0.25062,0.0857 0.49881,0.17463 0.74414,0.26613 -0.0432,0.21548 -0.24716,0.49681 -0.59531,0.8599 -0.1725,-0.0305 -0.34532,-0.0593 -0.51883,-0.0868 0.0783,-0.14002 0.17645,-0.25008 0.29456,-0.32918 -0.024,-0.0272 -0.0482,-0.054 -0.0724,-0.0811 0.0238,-0.0574 0.0473,-0.11478 0.0713,-0.17208 z m -1.36529,0.67593 c 0.11639,0.10168 0.23128,0.20391 0.34417,0.30696 -0.08,0.004 -0.15998,0.009 -0.23978,0.0145 -0.1896,-0.0126 -0.37934,-0.0236 -0.56948,-0.0326 0.15318,-0.0977 0.308,-0.19367 0.46509,-0.28887 z m 0.92139,0.56637 c 0.16682,0.0301 0.33346,0.0616 0.4992,0.0946 -0.22279,0.28485 -0.4393,0.57194 -0.64854,0.86093 -1.49155,2.33659 -2.61621,3.5219 -3.93413,3.65611 -0.13319,0.0136 -0.26626,0.0288 -0.39894,0.046 -0.004,4e-5 -0.007,5.1e-4 -0.0114,0.001 -0.27329,0.007 -0.51907,-0.0121 -0.74517,-0.0646 -0.81305,-0.22484 -1.40538,-0.67808 -1.64332,-1.51464 -0.14841,-0.52185 -0.0396,-1.04089 0.4129,-1.53582 0.63534,0.4086 1.2052,0.66394 1.76837,0.75964 0.20081,0.0244 0.40154,0.0283 0.60461,0.0134 0.23183,-0.0175 0.46356,-0.0313 0.69557,-0.0403 0.0691,-0.0169 0.13833,-0.0335 0.20774,-0.0496 -0.26269,0.69474 -0.70626,1.05571 -1.35651,1.12861 -0.0193,0.003 -0.0391,0.005 -0.0584,0.007 -0.0212,0.001 -0.0424,0.003 -0.0636,0.004 -0.30705,0.0175 -0.55895,-0.17158 -0.78289,-0.57516 -0.0162,-0.10299 0.0341,-0.2664 0.16226,-0.48421 l -0.009,-0.0625 c -0.33911,0.25517 -0.47651,0.4814 -0.44391,0.65836 0.0726,0.39468 0.37297,0.58415 0.87592,0.62425 0.0246,-0.003 0.0493,-0.004 0.0739,-0.006 0.0686,-0.004 0.13444,-0.0127 0.19844,-0.0248 0.15692,-0.0394 0.30187,-0.0991 0.43614,-0.17983 0.41305,-0.037 0.82107,-0.41546 1.31052,-1.1281 0.25146,-0.0978 0.50703,-0.19097 0.76636,-0.27957 0.7823,-0.34379 1.47352,-0.97055 2.08308,-1.90841 z m -4.82038,0.78858 c 0.18501,0.008 0.36915,0.0181 0.55243,0.03 0.76882,0.1241 1.12699,0.47067 1.12499,0.9772 v 0.0734 c -3.1e-4,0.07 -0.24133,0.1214 -0.71933,0.1788 -0.12393,0.007 -0.24771,0.0158 -0.37156,0.0258 -0.1663,0.0135 -0.3282,0.0122 -0.48782,-0.004 -0.51737,-0.0742 -1.01219,-0.30709 -1.52601,-0.70228 l -5.1e-4,-5.2e-4 c 0.33048,-0.32145 0.81084,-0.52562 1.41335,-0.57722 0.004,-9e-5 0.0105,-6.4e-4 0.0145,-0.001 z m -12.37805,0.0357 c 1.15088,0.0762 1.86731,0.37207 2.19005,0.78032 l 0.0207,0.0258 c -0.14106,0.0254 -0.31389,0.1 -0.51367,0.22531 -0.12492,0.0784 -0.24927,0.15742 -0.37258,0.23771 -0.32792,0.27459 -0.4598,0.4445 -0.4098,0.4992 0.15984,-0.10991 0.32149,-0.2184 0.48421,-0.32504 0.29288,-0.19186 0.64351,-0.33861 1.0449,-0.4346 0.17967,0.30626 0.36157,0.61143 0.5457,0.9157 -0.0275,0.0168 -0.0547,0.0332 -0.0822,0.0501 -0.1746,0.0305 -0.35688,0.004 -0.54881,-0.0817 -0.0524,-0.11344 -0.10424,-0.22717 -0.15554,-0.34107 l -0.16847,-0.2036 c -0.0805,0.008 -0.16095,0.0158 -0.24185,0.0238 -0.15556,0.099 -0.16301,0.2661 -0.0238,0.49816 0.0908,0.0759 0.18091,0.1516 0.27131,0.2279 -0.0537,0.30606 -0.15328,0.56858 -0.30386,0.79116 -0.0894,0.0628 -0.27819,0.0121 -0.57154,-0.14934 l -0.154,-0.16175 c -0.11259,-0.11828 -0.1683,-0.31136 -0.1571,-0.57929 -0.0118,0.008 -0.0233,0.0168 -0.0351,0.0248 -0.1961,0.46106 -0.18584,0.78496 -0.002,0.971 l 0.0548,0.0558 c 0.17859,0.18079 0.35693,0.23211 0.53382,0.15761 l 0.031,0.032 c -0.12053,0.0881 -0.23987,0.17707 -0.35864,0.26717 -0.11138,0.0659 -0.22231,0.1329 -0.33279,0.20051 -1.4195,0.58796 -2.62021,0.59572 -3.61787,-0.21033 -0.62136,-0.50199 -0.91849,-1.14688 -0.81184,-1.95182 h 5.2e-4 c 1.17932,-1.01178 2.47092,-1.51944 3.68453,-1.54564 z m 3.63957,0.66818 c 0.12981,0.18534 0.18207,0.5104 0.18707,0.9803 -0.1578,0.0763 -0.31509,0.15439 -0.47129,0.23409 -0.0465,-0.14921 -0.0541,-0.28709 -0.0222,-0.41392 -0.0396,-0.006 -0.0792,-0.0131 -0.11886,-0.0191 -0.0253,-0.0563 -0.0503,-0.11248 -0.0754,-0.16898 l -0.29043,-0.38344 c 0.26331,-0.0808 0.52738,-0.15692 0.79117,-0.22892 z m 32.1908,0.1912 c 0.17541,7e-5 0.33708,0.041 0.48421,0.12247 0.0702,0.0389 0.1399,0.0778 0.2098,0.11679 0.2803,0.15629 0.30191,0.39273 0.0713,0.70642 -0.64131,0.87246 -1.82542,1.36301 -3.55379,1.56476 -0.0973,-0.0501 -0.19469,-0.10016 -0.29249,-0.14986 l 0.0444,-0.0646 c 1.25449,-1.53144 2.27641,-2.29627 3.03651,-2.29598 z m -31.91588,0.99994 c 0.0441,0.33969 0.0966,0.67748 0.1571,1.01286 0.64487,2.60207 0.7247,4.15473 -0.26097,5.01726 -0.10069,0.0881 -0.20042,0.17717 -0.29972,0.26717 -0.23016,0.20854 -0.46238,0.37119 -0.7028,0.48834 -0.88754,0.39063 -1.73594,0.3704 -2.52853,-0.16743 -0.49664,-0.33701 -0.76351,-0.82074 -0.74621,-1.47123 1.10912,-0.0584 1.92204,-0.31286 2.51458,-0.82062 0.17232,-0.14768 0.347,-0.29298 0.52348,-0.43563 0.0416,-0.0529 0.0838,-0.10553 0.12609,-0.15813 0.32982,0.67031 0.25395,1.19996 -0.22634,1.63142 -0.031,0.0278 -0.0617,0.0557 -0.0925,0.0837 -0.24004,0.21798 -0.59606,0.23909 -1.08261,0.0662 -0.0901,-0.0701 -0.168,-0.22816 -0.2248,-0.47543 l -0.0537,-0.0429 c -0.0889,0.4062 -0.0426,0.66733 0.11627,0.78755 0.34972,0.26461 0.74754,0.22695 1.20148,-0.0806 0.0193,-0.0178 0.0385,-0.0359 0.0579,-0.0537 0.17692,-0.16265 0.29811,-0.34103 0.36691,-0.54002 0.30907,-0.2687 0.34558,-0.78958 0.17725,-1.60662 0.12149,-0.22002 0.24851,-0.43866 0.38085,-0.65629 0.33938,-0.71202 0.38161,-1.58191 0.13591,-2.62878 h 5.2e-4 c 0.15274,-0.074 0.30589,-0.14644 0.45992,-0.21704 z m -7.92562,0.0315 c 0.12415,0.84341 0.45757,1.44154 0.92191,1.80868 0.25753,0.14148 0.51446,0.28368 0.76998,0.42736 1.47912,0.38034 2.60379,0.21999 3.53157,-0.48472 0.0963,-0.0732 0.19344,-0.14576 0.29094,-0.21756 0.13404,-0.11711 0.26952,-0.23279 0.40669,-0.34727 0.0354,0.0383 0.11532,0.0127 0.24081,-0.0739 0.0776,-0.0535 0.15528,-0.10647 0.23358,-0.15917 0.24605,-0.16552 0.45361,-0.38682 0.63252,-0.66817 l 0.0481,0.0599 c 0.14463,1.07857 0.0345,1.97631 -0.35605,2.72645 -0.51439,-0.51893 -1.2766,-0.52963 -2.24638,0.10955 -0.0459,0.0397 -0.0913,0.0794 -0.13694,0.11938 -0.42985,0.3777 -0.71581,0.89509 -0.82837,1.52652 -0.49507,0.0256 -0.9613,-0.10309 -1.38751,-0.40618 -0.2446,-0.17394 -0.4245,-0.37706 -0.53537,-0.61288 -0.0562,-0.0184 -0.15408,0.006 -0.29249,0.0744 -0.0568,0.093 0.14868,0.33115 0.61805,0.71107 0.40524,0.2821 0.91948,0.44326 1.53324,0.51056 -0.0688,0.8802 0.25669,1.50728 0.87333,1.91255 0.21306,0.14004 0.45278,0.23915 0.71675,0.30075 l 0.0382,0.0258 c -1.65408,0.25931 -3.18611,0.14247 -4.52272,-0.6103 -0.70928,-0.39944 -1.23881,-0.91166 -1.55391,-1.56786 -0.14944,-0.0883 -0.3674,-0.67771 -0.49867,-1.78025 0.16465,-1.54085 0.71892,-2.68685 1.45468,-3.34295 0.016,-0.014 0.0322,-0.0278 0.0481,-0.0419 z m 6.31176,0.29869 c 0.16924,0.008 0.33758,0.0174 0.50488,0.0284 -0.0587,0.0498 -0.11708,0.0996 -0.17518,0.14987 -0.15711,0.10084 -0.31264,0.20323 -0.46716,0.30747 0.0432,-0.16178 0.0889,-0.32374 0.13746,-0.48576 z m 22.2958,0.20361 c 0.36655,-0.005 0.74346,0.0648 1.12603,0.20929 0.16162,0.0885 0.32283,0.17831 0.48317,0.26871 0.61308,0.43832 0.76721,0.90532 0.49352,1.38286 l -0.0388,0.0682 c -0.38546,-0.049 -0.69558,-0.11904 -0.93379,-0.21394 -0.14681,-0.0585 -0.29378,-0.11673 -0.44081,-0.17364 -0.59635,-0.23102 -1.02559,-0.71091 -1.33687,-1.45365 0.2112,-0.0556 0.42758,-0.0851 0.64751,-0.0879 z m 6.73964,0.092 c 0.12687,0.11444 0.25254,0.22911 0.37776,0.34417 -0.16439,0.16462 -0.32836,0.32935 -0.49196,0.49454 -0.003,-0.0185 -0.007,-0.0368 -0.0109,-0.0553 -0.14798,0.0112 -0.26688,-0.004 -0.35708,-0.0475 z m -7.7096,0.0491 c 0.22717,0.41164 0.4935,0.79752 0.8015,1.15962 0.0184,-0.009 0.0368,-0.0173 0.0553,-0.0264 0.27836,0.23476 0.56087,0.40942 0.85318,0.524 0.18949,0.0743 0.37877,0.14954 0.56792,0.22634 0.20175,0.0541 0.40353,0.1097 0.60565,0.1664 -0.66592,0.58104 -1.32898,0.7296 -2.00815,0.46664 -0.0383,-0.0148 -0.0764,-0.0292 -0.11472,-0.0439 -0.33696,-0.12943 -0.48584,-0.42629 -0.45734,-0.89813 0.0483,-0.0987 0.20378,-0.21888 0.46871,-0.35554 l 0.0295,-0.0594 c -0.48321,0.0648 -0.76311,0.19346 -0.84802,0.37156 -0.18042,0.37825 -0.009,0.69914 0.50075,0.97772 0.0267,0.0101 0.0534,0.0203 0.0801,0.0305 0.20667,0.0786 0.551,0.1325 1.04489,0.1726 0.58205,-0.003 1.13837,-0.19431 1.66915,-0.58032 0.91977,0.0782 1.69254,-0.0452 2.32028,-0.39636 0.0121,0.005 0.0242,0.0115 0.0362,0.0165 l -0.0424,0.0667 c -0.2053,0.29889 -0.41012,0.59797 -0.61495,0.8971 -0.0691,0.16493 -0.13865,0.32985 -0.20825,0.49454 -1.50685,0.94158 -2.88649,1.12107 -4.21525,0.5917 -0.14004,-0.0558 -0.2798,-0.11065 -0.41961,-0.16485 -0.2383,-0.11994 -0.47699,-0.23714 -0.71572,-0.35192 -0.75548,-0.63146 -0.98477,-1.35609 -0.62425,-2.19779 0.19442,-0.4539 0.59721,-0.82324 1.23559,-1.08728 z m 5.68078,0.35192 c 0.25638,0.11501 0.51204,0.23153 0.76637,0.34985 l -0.0243,0.0382 c -0.25413,-0.11823 -0.50968,-0.23493 -0.76585,-0.34985 z m 1.31259,0.52038 c 0.13086,0.021 0.26189,0.0424 0.39274,0.0641 0.0163,0.008 0.0323,0.0158 0.0486,0.0238 -0.57064,0.58531 -1.13644,1.10844 -1.69395,1.57045 -0.0236,-0.0112 -0.0471,-0.0225 -0.0708,-0.0336 l 0.0181,-0.0279 c 0.02,-0.007 0.0405,-0.0142 0.0605,-0.0212 l 0.0367,-0.0568 c 0.40095,-0.50724 0.80368,-1.01364 1.2082,-1.51877 z m -29.02407,1.52239 c 0.31819,-0.009 0.58786,0.099 0.8077,0.31212 l 0.0563,0.0548 c 0.0539,0.0522 -0.0949,0.23149 -0.43098,0.55242 -0.0927,0.0777 -0.18497,0.15655 -0.27647,0.23565 -0.5359,0.46341 -1.23603,0.67206 -2.1637,0.65525 0.0379,-0.4465 0.27799,-0.88106 0.71986,-1.2764 0.15149,-0.10021 0.3036,-0.19879 0.45682,-0.29559 0.30594,-0.15373 0.58296,-0.23129 0.83044,-0.23823 z" />
  </g>
</svg>
