<?xml version="1.0" encoding="UTF-8" standalone="no"?>
<!-- Created with Inkscape (http://www.inkscape.org/) -->

<svg
   width="210mm"
   height="297mm"
   viewBox="0 0 210 297"
   version="1.1"
   id="svg5"
   sodipodi:docname="SimonSays_Logo.svg"
   inkscape:version="1.1.1 (3bf5ae0d25, 2021-09-20)"
   inkscape:export-filename="D:\inkscaped\Logo.png"
   inkscape:export-xdpi="96"
   inkscape:export-ydpi="96"
   xmlns:inkscape="http://www.inkscape.org/namespaces/inkscape"
   xmlns:sodipodi="http://sodipodi.sourceforge.net/DTD/sodipodi-0.dtd"
   xmlns:xlink="http://www.w3.org/1999/xlink"
   xmlns="http://www.w3.org/2000/svg"
   xmlns:svg="http://www.w3.org/2000/svg">
  <sodipodi:namedview
     id="namedview7"
     pagecolor="#505050"
     bordercolor="#ffffff"
     borderopacity="1"
     inkscape:pageshadow="0"
     inkscape:pageopacity="0"
     inkscape:pagecheckerboard="1"
     inkscape:document-units="mm"
     showgrid="false"
     inkscape:zoom="2.9647587"
     inkscape:cx="386.87803"
     inkscape:cy="487.22346"
     inkscape:window-width="1920"
     inkscape:window-height="1057"
     inkscape:window-x="-8"
     inkscape:window-y="-8"
     inkscape:window-maximized="1"
     inkscape:current-layer="layer1" />
  <defs
     id="defs2">
    <linearGradient
       inkscape:collect="always"
       id="linearGradient2324">
      <stop
         style="stop-color:#0f0f0f;stop-opacity:1"
         offset="0"
         id="stop12814" />
      <stop
         style="stop-color:#0f0f0f;stop-opacity:1"
         offset="0.59186536"
         id="stop13553" />
      <stop
         style="stop-color:#373737;stop-opacity:1"
         offset="1"
         id="stop12816" />
    </linearGradient>
    <inkscape:path-effect
       effect="bend_path"
       id="path-effect6885"
       is_visible="true"
       lpeversion="1"
       bendpath="m 101.70913,156.07362 c 8.93389,-11.51567 20.7949,-11.54774 35.80026,0"
       prop_scale="1"
       scale_y_rel="false"
       vertical="false"
       hide_knot="false"
       bendpath-nodetypes="cc" />
    <linearGradient
       inkscape:collect="always"
       xlink:href="#linearGradient2324"
       id="linearGradient11745"
       gradientUnits="userSpaceOnUse"
       x1="116.84055"
       y1="146.95168"
       x2="150.41109"
       y2="146.69231"
       spreadMethod="reflect"
       gradientTransform="translate(-3.7041667)" />
  </defs>
  <g
     inkscape:label="Layer 1"
     inkscape:groupmode="layer"
     id="layer1">
    <path
       id="path7433"
       style="fill:url(#linearGradient11745);fill-opacity:1;stroke-width:0.0631042"
       d="m 80.436311,123.66768 -0.236159,0.47026 c -1.030433,2.05416 -1.342337,4.32259 -0.911055,6.62595 0.424389,2.26659 1.622986,4.67776 3.423046,6.88743 0.772901,0.94876 0.854626,1.12129 0.438217,0.92191 -0.42081,-0.20149 -1.299742,-0.9098 -1.971974,-1.58905 -0.782349,-0.7905 -1.181637,-1.28765 -1.627807,-2.02572 l -0.306443,-0.50643 0.04238,0.37879 c 0.1334,1.19053 0.443224,2.26535 0.946195,3.28146 0.436329,0.88148 0.980649,1.60278 1.80971,2.39933 1.092261,1.04944 2.309736,1.82272 4.162536,2.64429 2.234441,0.99079 4.580541,1.64462 10.781763,3.00292 4.81701,1.0551 6.4733,1.47461 8.47183,2.14612 0.92402,0.31047 1.76738,0.64012 2.54403,0.98857 a 5,5 0 0 0 -0.0687,0.51986 c -0.74297,-0.23305 -1.55554,-0.45392 -2.46444,-0.66404 -1.35618,-0.31351 -2.61071,-0.53555 -5.926247,-1.04903 -7.230033,-1.11969 -8.902818,-1.47102 -11.247379,-2.36213 -1.442508,-0.54825 -2.473367,-1.16276 -3.361552,-2.0035 -0.294939,-0.27919 -0.535884,-0.48967 -0.535884,-0.46767 0,0.1065 0.477477,0.96829 0.795819,1.43609 0.956699,1.40588 2.086467,2.34175 3.838008,3.17965 2.214949,1.0596 4.756502,1.58204 9.943068,2.0438 0.78091,0.0695 2.229257,0.19871 3.218397,0.28681 2.37623,0.21171 4.22223,0.46014 5.79241,0.7891 a 5,5 0 0 0 0.24598,0.92811 c -1.50727,-0.0601 -3.72079,-0.0895 -6.82748,-0.092 -2.360837,-0.002 -4.03407,-0.029 -4.38527,-0.0718 -0.770748,-0.0938 -1.914502,-0.38884 -2.415353,-0.62322 -0.226679,-0.10601 -0.427384,-0.17723 -0.446484,-0.15813 -0.0191,0.0191 0.148209,0.20941 0.37207,0.42272 1.042101,0.99299 2.553417,1.67632 4.38474,1.98334 1.01695,0.17049 2.931217,0.15653 4.021977,-0.0295 0.44328,-0.0755 0.86155,-0.13746 0.92914,-0.13746 0.22859,0 0.0653,0.16574 -0.48627,0.49454 -0.87458,0.52137 -1.78159,0.83974 -3.01532,1.05731 -0.23528,0.0415 -0.2426,0.0478 -0.0956,0.0956 0.0868,0.0285 0.57007,0.0424 1.07332,0.0315 1.07946,-0.0234 1.48757,-0.10707 4.20645,-0.86351 1.52129,-0.42325 2.546,-0.6938 3.35019,-0.87592 a 5,5 0 0 0 4.19509,2.0283 5,5 0 0 0 3.84524,-2.02933 c 0.8049,0.18211 1.83137,0.45281 3.35587,0.87695 2.71888,0.75644 3.12699,0.84015 4.20646,0.86351 0.50325,0.0109 0.98552,-0.003 1.07229,-0.0315 0.14703,-0.0478 0.14078,-0.0541 -0.0946,-0.0956 -1.23373,-0.21757 -2.14127,-0.53594 -3.01584,-1.05731 -0.55158,-0.3288 -0.71433,-0.49454 -0.48576,-0.49454 0.0676,0 0.48535,0.0619 0.92863,0.13746 1.09077,0.186 3.00556,0.19996 4.02249,0.0295 1.83132,-0.30702 3.34213,-0.99035 4.38423,-1.98334 0.22385,-0.21331 0.39169,-0.40361 0.37259,-0.42272 -0.0191,-0.0191 -0.22034,0.0521 -0.447,0.15813 -0.50086,0.23438 -1.64409,0.52939 -2.41484,0.62322 -0.3512,0.0428 -2.02494,0.07 -4.38578,0.0718 -3.11098,0.002 -5.32698,0.0323 -6.83421,0.0925 a 5,5 0 0 0 0.24753,-0.92759 c 1.57138,-0.32952 3.41911,-0.57818 5.7981,-0.79013 0.98916,-0.0881 2.4375,-0.21728 3.21841,-0.28681 5.18657,-0.46176 7.72811,-0.98421 9.94306,-2.0438 1.75154,-0.8379 2.88131,-1.77378 3.83801,-3.17965 0.31834,-0.4678 0.79581,-1.32958 0.79581,-1.43609 0,-0.022 -0.24146,0.1885 -0.5364,0.46767 -0.88817,0.84074 -1.91903,1.45525 -3.36155,2.0035 -2.34455,0.89111 -4.01681,1.24244 -11.24686,2.36213 -3.31554,0.51348 -4.5706,0.73552 -5.92677,1.04903 -0.91563,0.21167 -1.73375,0.43419 -2.48098,0.66921 l -0.0222,-0.32091 a 5,5 0 0 0 -0.0367,-0.20154 c 0.77843,-0.34958 1.62414,-0.67981 2.55074,-0.99115 1.99853,-0.67151 3.65432,-1.09102 8.47132,-2.14612 6.20123,-1.3583 8.54734,-2.01213 10.78177,-3.00292 1.8528,-0.82157 3.07028,-1.59485 4.16254,-2.64429 0.82906,-0.79655 1.37338,-1.51785 1.80971,-2.39933 0.50297,-1.01611 0.81278,-2.09093 0.94619,-3.28146 l 0.0429,-0.37879 -0.30592,0.50643 c -0.44617,0.73807 -0.84598,1.23522 -1.62833,2.02572 -0.67222,0.67925 -1.55116,1.38756 -1.97197,1.58905 -0.41641,0.19938 -0.33417,0.0269 0.43874,-0.92191 1.80006,-2.20967 2.99813,-4.62084 3.42253,-6.88743 0.43128,-2.30336 0.11936,-4.57179 -0.91106,-6.62595 l -0.23564,-0.47026 -0.0362,1.4795 c -0.0379,1.59145 -0.12528,2.32904 -0.42478,3.57704 -0.84378,3.51594 -3.09073,6.499 -6.68796,8.87904 -1.15973,0.76731 -1.65103,1.05066 -2.99723,1.72703 -2.15813,1.0843 -3.77507,1.73102 -9.33949,3.73621 -5.03533,1.81452 -7.24225,2.77202 -9.12502,3.97443 a 5,5 0 0 0 -4.4018,-1.81798 5,5 0 0 0 -3.3507,1.81591 c -1.88206,-1.20144 -4.08898,-2.15889 -9.121387,-3.97236 -5.56443,-2.00519 -7.181384,-2.65191 -9.339492,-3.73621 -1.3462,-0.67637 -1.838031,-0.95972 -2.99775,-1.72703 -3.597238,-2.38004 -5.843667,-5.3631 -6.687447,-8.87904 -0.2995,-1.248 -0.387398,-1.98559 -0.425297,-3.57704 z m 34.090419,1.50327 c -1.53254,0.0107 -2.86652,0.4148 -3.86384,1.15497 -0.12201,0.006 -0.26734,0.0203 -0.43512,0.045 -0.54255,0.10808 -1.32649,0.32945 -2.25516,0.69454 -3.02447,1.52935 -3.51237,3.46224 -2.70319,5.1387 l 0.0646,0.13332 c 0.59779,1.23848 1.67278,2.04372 2.91921,2.67323 1.03529,0.59899 1.90169,0.88001 2.81171,0.87901 0.0277,-0.003 0.0553,-0.007 0.0832,-0.01 0.18541,-0.0237 0.37156,-0.0436 0.5581,-0.06 1.62528,-0.14273 2.93598,-0.78653 4.14394,-2.24896 0.012,0.001 0.0241,0.002 0.0362,0.004 -0.0383,0.2404 0.0918,0.66705 0.3421,1.31516 0.59876,1.15492 1.28235,1.84327 2.24792,2.10892 0.42772,0.0137 0.69544,-0.0956 0.79324,-0.34572 0.0459,-0.26414 -0.0325,-0.42574 -0.23461,-0.48214 -0.0149,-0.004 -0.03,-0.008 -0.045,-0.0124 -0.0149,0.007 -0.03,0.0142 -0.045,0.0212 -0.0188,0.0841 -0.0378,0.16809 -0.0568,0.25219 -0.0758,0.20409 -0.3356,0.23847 -0.77669,0.12609 -0.11624,-0.0517 -0.23268,-0.10255 -0.34934,-0.15245 -1.23745,-0.76515 -1.76391,-1.76311 -1.4676,-3.16828 l 0.0522,-0.24805 c 0.33304,-0.60214 0.68379,-1.20035 1.05161,-1.7942 0.039,-0.1625 0.36974,-0.20252 0.98961,-0.0858 0.26778,0.0864 0.53388,0.17624 0.79788,0.26924 0.0589,-0.0346 0.11795,-0.0691 0.17725,-0.10336 -0.10355,-0.0945 -0.39635,-0.22227 -0.87643,-0.36328 -0.30001,-0.0316 -0.60016,-0.0593 -0.9002,-0.0827 l -0.0553,-0.009 c 0.32692,-0.54327 0.66692,-1.08368 1.01958,-1.62058 0.54137,-0.68708 1.27147,-1.15147 2.19005,-1.36942 0.39161,0.10988 0.77953,0.22522 1.16375,0.34571 0.0857,0.0211 0.17091,0.0425 0.25631,0.0641 1.46411,0.37053 2.83712,0.29486 4.26073,-0.27233 0.0163,-0.033 -0.0369,-0.09 -0.16072,-0.17002 -0.89629,0.33091 -1.75148,0.36925 -2.61844,0.12454 -0.60441,-0.20058 -1.15478,-0.40528 -1.6521,-0.6196 -2.81539,-1.4149 -5.09656,-1.97922 -6.02909,-2.05672 -0.25443,-0.0212 -0.50989,-0.0397 -0.76636,-0.0563 l 5.2e-4,0.001 c -0.22663,-0.0147 -0.44976,-0.0212 -0.6687,-0.0196 z m -0.89348,0.33745 c 0.0555,-5.3e-4 0.1106,-1.3e-4 0.16588,0.002 0.21544,0.007 0.43032,0.0157 0.6444,0.0258 0.3732,0.0526 0.7429,0.1102 1.10898,0.1726 2.08968,0.72812 3.9814,1.59896 4.74286,1.91978 l -0.0124,0.0408 c -1.74565,0.48091 -2.81574,1.23513 -3.30574,2.12132 -0.29775,-0.11074 -0.59943,-0.21702 -0.90486,-0.31936 -0.0614,-0.0568 -0.14015,-0.36176 -0.26148,-0.92191 -0.77976,-1.46736 -2.34869,-2.29435 -4.55631,-2.21795 -0.0405,0.001 -0.0811,0.002 -0.12144,0.004 l -0.002,-0.031 c 0.80979,-0.5248 1.6687,-0.78797 2.50166,-0.79582 z m -4.73718,0.22789 c -0.7089,0.69796 -1.51872,1.14463 -2.51147,1.3963 -0.71618,0.1526 -1.3639,0.2833 -1.97508,0.38654 -3.54134,0.42136 -5.955647,1.41212 -6.70967,1.86086 -0.22152,0.13185 -0.44105,0.26657 -0.65784,0.40308 -1.533992,0.96616 -2.399066,2.1821 -2.596218,3.45819 -0.342659,0.29484 -0.880792,0.9371 -1.467093,1.90427 -1.190321,2.6407 -0.362995,4.44266 1.446424,5.43171 l 0.143142,0.078 c 1.317821,0.72035 2.788255,0.86335 4.341338,0.64803 1.380327,-0.11889 2.399787,-0.49754 3.195157,-1.2144 0.13952,-0.12576 0.28058,-0.24964 0.42271,-0.37155 1.25802,-1.07903 1.66926,-2.32407 1.47071,-4.08813 0.0101,-0.006 0.0202,-0.0111 0.0305,-0.0171 0.15457,0.2036 0.57025,0.44127 1.23145,0.7891 1.28448,0.53256 2.19837,0.68928 2.97656,0.4315 0.2793,-0.19506 0.38702,-0.40618 0.29972,-0.65112 -0.12967,-0.23165 -0.28179,-0.32335 -0.4532,-0.26976 -0.0127,0.004 -0.0251,0.007 -0.0377,0.0114 -0.006,0.0128 -0.012,0.0254 -0.017,0.0382 0.0405,0.0752 0.0808,0.15094 0.12092,0.22635 0.0779,0.19769 -0.0704,0.3479 -0.42994,0.48059 -0.10978,0.0181 -0.21972,0.0377 -0.33022,0.0589 -1.30338,0.0429 -2.47272,-0.37393 -3.30832,-1.59835 l -0.14676,-0.21498 c -0.20025,-0.63752 -0.37827,-1.28184 -0.5333,-1.9327 -0.0903,-0.14267 0.13774,-0.36072 0.71572,-0.61443 0.27564,-0.0823 0.55216,-0.15958 0.8294,-0.23099 0.0222,-0.058 0.0452,-0.11625 0.0682,-0.17415 -0.14981,-0.0163 -0.47824,0.0441 -0.96377,0.20205 -0.26228,0.14143 -0.52075,0.28744 -0.77514,0.43822 -0.0168,0.008 -0.0334,0.0163 -0.0501,0.0243 -0.14782,-0.59016 -0.2776,-1.18535 -0.38861,-1.78542 -0.0681,-0.81721 0.19805,-1.5766 0.84233,-2.24328 0.4233,-0.13033 0.85076,-0.25106 1.28209,-0.36225 0.092,-0.0292 0.18387,-0.058 0.27647,-0.0863 1.58612,-0.48535 2.83234,-1.21277 3.93878,-2.35024 -0.005,-0.0348 -0.0981,-0.0565 -0.28009,-0.0625 z m 2.44223,0.786 c 1.38221,0.0212 2.48975,0.36301 3.26698,0.94102 0.76756,0.7036 1.06117,1.332 0.98857,1.8247 l -0.005,0.031 c -0.12053,-0.0598 -0.30029,-0.1002 -0.53795,-0.1173 -0.1486,-0.0106 -0.2974,-0.0199 -0.44648,-0.0289 -0.44237,0.0233 -0.66576,0.0765 -0.67076,0.14624 0.19812,0.007 0.39542,0.0168 0.59273,0.0279 0.35517,0.0199 0.71831,0.10564 1.07952,0.25787 -0.0995,0.33499 -0.19729,0.67058 -0.29249,1.00614 -0.0325,-0.003 -0.0652,-0.005 -0.0977,-0.008 -0.1493,-0.0755 -0.26056,-0.19933 -0.33486,-0.37259 0.0475,-0.11569 0.0952,-0.23125 0.14366,-0.34675 l 0.0315,-0.2496 c -0.0637,-0.0398 -0.12731,-0.0796 -0.19172,-0.11885 -0.18634,-0.0125 -0.31741,0.10982 -0.39171,0.36431 0.008,0.10885 0.0173,0.21773 0.0243,0.3266 -0.2691,0.20134 -0.53955,0.3428 -0.81597,0.4253 -0.11192,-0.003 -0.20962,-0.14863 -0.29972,-0.43667 l 0.0109,-0.20929 c 0.008,-0.15312 0.11334,-0.32997 0.32349,-0.52607 -0.0148,-0.001 -0.0296,-0.002 -0.0444,-0.002 -0.48926,0.23751 -0.7268,0.48847 -0.7338,0.73174 l -0.002,0.0734 c -0.007,0.23763 0.0833,0.37716 0.26717,0.42116 l -0.002,0.0419 c -0.15343,-0.002 -0.30718,-0.003 -0.46095,-0.002 -0.13015,-0.0133 -0.26077,-0.0257 -0.39171,-0.0372 -0.77932,-0.19031 -1.38556,-0.4602 -1.81591,-0.85111 -0.39381,-0.34471 -0.64587,-0.78602 -0.71417,-1.33893 -0.0677,-0.5481 0.0689,-1.06095 0.46147,-1.53376 0.12383,-0.15024 0.27366,-0.29351 0.44959,-0.42943 l 5.1e-4,5.2e-4 c 0.2085,-0.0103 0.41129,-0.0139 0.60875,-0.0109 z m -1.12603,0.0837 h 5.2e-4 c -0.59511,0.74215 -0.79779,1.39775 -0.72089,1.93425 0.0911,0.2492 0.17983,0.49918 0.26613,0.74983 0.25498,0.33029 0.52163,0.60922 0.79995,0.83664 0.63414,0.53402 1.3367,0.77963 2.17817,0.77463 0.12468,-4.2e-4 0.24913,-4.9e-4 0.37362,5.1e-4 0.18498,-0.0124 0.37025,-0.0225 0.55552,-0.0315 -0.003,0.049 0.0731,0.0751 0.22892,0.0811 0.0963,0.004 0.19268,0.007 0.28888,0.0124 0.30241,0.0145 0.61978,-0.035 0.96118,-0.14728 l -0.0103,0.0729 c -0.70783,0.90163 -1.46919,1.51038 -2.312,1.85622 0.0192,-0.68055 -0.51988,-1.12636 -1.70171,-1.18236 -0.063,0.005 -0.12613,0.009 -0.18913,0.0145 -0.0811,0.007 -0.1623,0.0169 -0.2434,0.0305 -0.50866,0.0823 -1.00614,0.31255 -1.45107,0.68161 -0.38016,-0.24625 -0.64274,-0.59171 -0.75396,-1.05316 -0.0639,-0.26492 -0.0585,-0.51884 0.0258,-0.76326 -0.03,-0.0441 -0.12228,-0.0765 -0.27802,-0.0941 -0.1106,0.0444 -0.12128,0.33987 -0.0274,0.88367 0.1131,0.43374 0.39255,0.82683 0.7984,1.20665 -0.64625,0.64652 -0.79107,1.31226 -0.59169,1.94717 0.0691,0.22013 0.18234,0.42171 0.33279,0.60823 l 0.0119,0.0398 c -1.32308,-0.67049 -2.4517,-1.48171 -3.03393,-2.75901 v -5.1e-4 c -0.30652,-0.67271 -0.39806,-1.3514 -0.20102,-2.04381 -0.058,-0.14086 0.16292,-0.74121 0.86041,-1.69964 1.25911,-1.17076 2.63199,-1.81138 3.75895,-1.94716 0.0243,-0.003 0.0491,-0.006 0.0734,-0.009 z m -7.07089,2.08308 0.0191,0.0377 c -1.15363,1.31931 -1.43018,2.5156 -1.15082,3.44475 -0.32103,0.0873 -0.64162,0.18103 -0.9617,0.28112 -0.0902,-0.007 -0.38985,-0.18888 -0.91674,-0.53381 -1.755517,-0.64013 -3.643957,-0.33098 -5.239995,0.99012 -0.029,0.0241 -0.05833,0.0481 -0.08733,0.0723 l -0.02532,-0.0227 c 0.215029,-0.91088 0.705945,-1.63396 1.415415,-2.12701 0.172473,-0.11986 0.346593,-0.23824 0.522443,-0.35501 0.333637,-0.17762 0.671207,-0.35004 1.012337,-0.51625 2.36435,-0.71145 4.38493,-1.06831 5.41259,-1.27124 z m 25.68577,0.0971 c -0.69721,8e-4 -1.44925,0.14863 -2.2381,0.44855 -0.46976,-0.15388 -1.29858,-0.27364 -2.44326,-0.30644 -2.88834,0.254 -4.44744,1.38894 -4.96456,3.00499 l -0.0884,0.27543 c -0.54841,1.71384 -0.0417,3.2758 1.17358,4.72013 0.31962,0.54782 0.95743,0.99181 1.94923,1.38389 0.20103,0.0795 0.40198,0.1607 0.60358,0.2434 1.1216,0.46012 2.33214,0.54928 3.68608,0.26303 0.15606,1.48233 0.7305,2.46549 1.82004,3.0055 0.46872,0.11669 0.78944,0.063 0.9586,-0.16588 0.11256,-0.24903 0.0682,-0.42534 -0.13384,-0.5271 -0.0112,-0.006 -0.0223,-0.0111 -0.0336,-0.0171 -0.0216,0.002 -0.0435,0.003 -0.0651,0.005 -0.0382,0.0803 -0.076,0.16062 -0.11421,0.24082 -0.13721,0.18791 -0.43679,0.16575 -0.89658,-0.0615 -0.34345,-0.23598 -0.60152,-0.47812 -0.77618,-0.72864 -0.42204,-0.49449 -0.59155,-1.09581 -0.51315,-1.80815 1.4368,-0.43786 2.79295,-1.49373 3.98425,-3.21893 0.0513,-0.0743 0.32127,-0.11025 0.80977,-0.10025 1.84704,-0.21145 3.02077,-0.61009 3.53725,-1.30586 l 0.18087,-0.2434 c 0.23985,-0.53853 0.1538,-0.92982 -0.26665,-1.1653 -0.0411,-0.0231 -0.0822,-0.0463 -0.1235,-0.0693 -1.08885,-0.60661 -2.65214,-0.0444 -4.57544,1.71514 -0.13648,-0.10844 -0.27377,-0.21634 -0.41186,-0.32401 -0.0752,-0.0361 -0.0187,-0.34807 0.16278,-0.93844 -0.1333,-1.70439 -1.00293,-2.91045 -2.54919,-3.50315 -0.17444,-0.0669 -0.34919,-0.13272 -0.52504,-0.19792 1.20562,-0.517 2.39554,-0.53875 3.47834,-0.0651 0.16304,0.0713 0.32529,0.14341 0.4868,0.216 0.75758,0.34048 1.45674,1.1211 2.02261,2.32854 0.0128,0.006 0.0253,0.0136 0.0382,0.0196 0.0684,-0.007 0.13717,-0.0126 0.20567,-0.0196 -0.45442,-1.24656 -1.20275,-2.10857 -2.19779,-2.55436 -0.15771,-0.0707 -0.31624,-0.14041 -0.47543,-0.20981 v -5.2e-4 c -0.51823,-0.22607 -1.09065,-0.34022 -1.70584,-0.33951 z m -4.2478,0.47284 c 0.4757,0.005 0.98206,0.0539 1.51464,0.14986 0.019,0.007 0.0378,0.0132 0.0568,0.0202 -0.43226,0.32009 -0.70849,0.61256 -0.83613,0.86919 l -0.11833,0.2372 c -0.23014,0.46183 -0.27148,0.94926 -0.14573,1.46348 0.18077,0.77626 0.74902,1.50156 1.68827,2.21691 0.26898,0.39731 0.48205,0.63399 0.65577,0.71159 0.0864,0.0386 0.1727,0.0778 0.2589,0.11679 0.20517,0.0928 0.42107,0.15098 0.64957,0.17518 0.0123,0.006 0.0245,0.012 0.0367,0.017 -0.90697,0.58848 -1.84889,0.88592 -2.82773,0.91003 0.34171,-0.58243 0.0361,-1.18481 -0.97772,-1.75184 -0.0538,-0.0208 -0.10785,-0.0413 -0.16175,-0.062 -0.5549,-0.21249 -1.28234,-0.26243 -2.14353,-0.12815 -0.10143,-0.50197 -0.0835,-0.92875 0.0739,-1.28261 0.16439,-0.24841 0.33026,-0.49643 0.49713,-0.74414 -0.0335,-0.0487 -0.067,-0.0976 -0.10077,-0.14625 -0.31355,0.16017 -0.53222,0.3928 -0.66249,0.6935 -0.20835,0.48106 -0.22554,0.99403 -0.077,1.53944 -0.91483,0.28881 -1.46703,0.75026 -1.70997,1.33842 -0.0777,0.18809 -0.11754,0.43249 -0.12454,0.7338 l -0.017,0.0398 c -0.0112,-0.004 -0.0229,-0.006 -0.0341,-0.0103 -0.81621,-1.30504 -1.13142,-2.5749 -0.71055,-3.83232 l 0.0925,-0.27492 c 0.4299,-1.28446 1.51272,-2.27461 3.4463,-2.80397 0.50403,-0.13473 1.06528,-0.20192 1.6769,-0.19585 z m 1.97197,0.27854 c 0.27514,0.10002 0.54885,0.20213 0.82063,0.30644 0.60958,0.23395 1.1625,0.6376 1.63814,1.20613 0.80554,1.1292 0.94656,2.02363 0.5519,2.63601 l -0.0424,0.0661 c -0.20207,-0.0951 -0.40498,-0.18896 -0.60875,-0.28216 -0.41004,-0.1301 -0.63631,-0.16003 -0.67541,-0.0961 0.17476,0.0776 0.34887,0.15603 0.52245,0.23513 0.18927,0.11493 0.37775,0.23062 0.56482,0.34727 0.0168,0.008 0.0333,0.0153 0.0501,0.0233 -0.20447,0.25795 -0.40833,0.51616 -0.61185,0.77463 -0.0693,0.10787 -0.25966,0.0879 -0.57361,-0.0558 -0.31008,-0.14197 -0.62216,-0.28174 -0.93535,-0.41858 0.0171,-0.0897 0.0344,-0.17943 0.0512,-0.26923 l 0.12093,-0.20257 c 0.0807,-0.13465 0.264,-0.26222 0.55087,-0.37931 -0.0128,-0.006 -0.026,-0.0115 -0.0388,-0.0165 -0.54895,0.051 -0.88868,0.19853 -1.02474,0.42995 l -0.0739,0.12558 c -1.3827,-1.1078 -1.86949,-2.20999 -1.27331,-3.38378 l 0.015,-0.0294 c 0.18033,-0.35502 0.50105,-0.69672 0.97203,-1.01699 z m -10.5699,0.20825 c 0.25063,0.0857 0.49882,0.17464 0.74414,0.26614 -0.0432,0.21548 -0.24716,0.4968 -0.59531,0.85989 -0.1725,-0.0305 -0.34532,-0.0593 -0.51883,-0.0868 0.0783,-0.14002 0.17645,-0.25008 0.29456,-0.32918 -0.024,-0.0272 -0.0481,-0.054 -0.0724,-0.0811 0.0238,-0.0574 0.0473,-0.11479 0.0713,-0.17209 z m -1.36529,0.67593 c 0.11639,0.10168 0.23128,0.20391 0.34417,0.30696 -0.08,0.004 -0.15998,0.009 -0.23978,0.0145 -0.1896,-0.0126 -0.37934,-0.0236 -0.56947,-0.0326 0.15318,-0.0977 0.30799,-0.19367 0.46508,-0.28887 z m 0.92139,0.56637 c 0.16682,0.0301 0.33346,0.0616 0.4992,0.0946 -0.22279,0.28485 -0.4393,0.57194 -0.64854,0.86093 -1.49155,2.33659 -2.61621,3.5219 -3.93413,3.65611 -0.13319,0.0136 -0.26626,0.0288 -0.39894,0.046 -0.004,4e-5 -0.007,5.4e-4 -0.0114,0.001 -0.27329,0.007 -0.51907,-0.0121 -0.74517,-0.0646 -0.81305,-0.22484 -1.40537,-0.67808 -1.64331,-1.51464 -0.14841,-0.52185 -0.0396,-1.04089 0.41289,-1.53582 0.63534,0.4086 1.2052,0.66394 1.76837,0.75964 0.20081,0.0244 0.40154,0.0283 0.60461,0.0134 0.23184,-0.0175 0.46356,-0.0313 0.69557,-0.0403 0.0691,-0.0169 0.13833,-0.0335 0.20774,-0.0496 -0.26269,0.69474 -0.70626,1.05572 -1.35651,1.12862 -0.0193,0.003 -0.0391,0.005 -0.0584,0.007 -0.0212,0.001 -0.0424,0.003 -0.0636,0.004 -0.30705,0.0175 -0.55896,-0.17158 -0.7829,-0.57516 -0.0162,-0.10299 0.0341,-0.2664 0.16226,-0.48421 l -0.009,-0.0625 c -0.33911,0.25517 -0.4765,0.4814 -0.4439,0.65836 0.0726,0.39468 0.37296,0.58415 0.87591,0.62425 0.0246,-0.003 0.0493,-0.004 0.0739,-0.006 0.0686,-0.004 0.13444,-0.0127 0.19844,-0.0248 0.15692,-0.0394 0.30188,-0.0991 0.43615,-0.17983 0.41305,-0.037 0.82106,-0.41546 1.31051,-1.1281 0.25146,-0.0978 0.50703,-0.19097 0.76637,-0.27957 0.78229,-0.34379 1.47351,-0.97055 2.08307,-1.90841 z m -4.82037,0.78859 c 0.18501,0.008 0.36914,0.0181 0.55242,0.03 0.76882,0.1241 1.12699,0.47067 1.12499,0.9772 v 0.0734 c -3.1e-4,0.07 -0.24133,0.1214 -0.71933,0.1788 -0.12393,0.007 -0.24771,0.0158 -0.37155,0.0258 -0.16631,0.0135 -0.32821,0.0121 -0.48783,-0.004 -0.51737,-0.0742 -1.01218,-0.30709 -1.52601,-0.70228 l -5.1e-4,-5.1e-4 c 0.33048,-0.32145 0.81084,-0.52563 1.41335,-0.57723 0.004,-9e-5 0.0105,-6.7e-4 0.0145,-0.001 z m -12.378057,0.0357 c 1.15089,0.0762 1.867317,0.37207 2.190057,0.78032 l 0.0207,0.0258 c -0.14106,0.0254 -0.31389,0.1 -0.51366,0.22532 -0.124917,0.0784 -0.249277,0.15742 -0.372587,0.23771 -0.32792,0.27458 -0.4598,0.44449 -0.4098,0.49919 0.15985,-0.10991 0.32149,-0.2184 0.48421,-0.32504 0.292877,-0.19186 0.643507,-0.33861 1.044897,-0.4346 0.17967,0.30626 0.36157,0.61143 0.5457,0.9157 -0.0275,0.0168 -0.0547,0.0332 -0.0822,0.0501 -0.1746,0.0305 -0.35688,0.004 -0.54881,-0.0816 -0.0524,-0.11344 -0.10424,-0.22716 -0.15554,-0.34106 l -0.16847,-0.20361 c -0.0805,0.008 -0.16094,0.0158 -0.24184,0.0238 -0.155557,0.099 -0.162977,0.2661 -0.0238,0.49816 0.0908,0.0759 0.18091,0.1516 0.27131,0.2279 -0.0537,0.30606 -0.15328,0.56858 -0.30386,0.79116 -0.0894,0.0628 -0.278187,0.0121 -0.571537,-0.14934 l -0.154,-0.16175 c -0.11259,-0.11828 -0.16829,-0.31136 -0.15709,-0.57929 -0.0118,0.008 -0.0233,0.0168 -0.0351,0.0248 -0.1961,0.46106 -0.18591,0.78496 -0.002,0.971 l 0.0548,0.0558 c 0.17859,0.18079 0.35692,0.23211 0.53381,0.15762 l 0.031,0.032 c -0.12053,0.0881 -0.23986,0.17707 -0.35864,0.26717 -0.11137,0.0659 -0.22231,0.1329 -0.33279,0.20051 -1.419513,0.58796 -2.62022,0.59572 -3.617877,-0.21033 -0.621361,-0.50199 -0.918486,-1.14687 -0.811837,-1.95181 h 5.18e-4 c 1.17932,-1.01178 2.470913,-1.51945 3.684526,-1.54565 z m 3.639577,0.66818 c 0.12981,0.18534 0.18206,0.5104 0.18706,0.9803 -0.15779,0.0763 -0.31508,0.1544 -0.47128,0.23409 -0.0465,-0.1492 -0.0541,-0.28709 -0.0222,-0.41392 -0.0396,-0.006 -0.0792,-0.0131 -0.11886,-0.0191 -0.0253,-0.0563 -0.0503,-0.11248 -0.0754,-0.16899 l -0.29042,-0.38344 c 0.26331,-0.0808 0.52737,-0.15692 0.79116,-0.22892 z m 32.19079,0.1912 c 0.17541,7e-5 0.33708,0.041 0.48421,0.12248 0.0702,0.0389 0.13991,0.0778 0.20981,0.11678 0.2803,0.1563 0.30192,0.39273 0.0713,0.70642 -0.64131,0.87246 -1.82542,1.36301 -3.55379,1.56476 -0.0973,-0.0501 -0.19469,-0.10016 -0.29249,-0.14986 l 0.0444,-0.0646 c 1.25449,-1.53144 2.2764,-2.29628 3.0365,-2.29599 z m -31.91588,0.99994 c 0.0441,0.33969 0.0966,0.67748 0.1571,1.01286 0.64487,2.60207 0.7247,4.15473 -0.26097,5.01726 -0.10068,0.0881 -0.20041,0.17717 -0.29971,0.26717 -0.23016,0.20854 -0.46238,0.37119 -0.7028,0.48834 -0.88754,0.39063 -1.735937,0.3704 -2.528537,-0.16743 -0.49664,-0.33701 -0.763513,-0.82074 -0.746213,-1.47123 1.109133,-0.0584 1.922053,-0.31286 2.51459,-0.82062 0.17232,-0.14768 0.347,-0.29298 0.52348,-0.43563 0.0416,-0.0529 0.0838,-0.10553 0.12609,-0.15813 0.32982,0.67031 0.25395,1.19997 -0.22634,1.63142 -0.031,0.0278 -0.0617,0.0557 -0.0925,0.0837 -0.24004,0.21798 -0.59607,0.23904 -1.082617,0.0661 -0.0901,-0.0701 -0.168,-0.22816 -0.22479,-0.47543 l -0.0537,-0.0429 c -0.0889,0.4062 -0.0426,0.66733 0.11627,0.78755 0.34972,0.26461 0.747537,0.22693 1.201477,-0.0806 0.0193,-0.0178 0.0385,-0.036 0.0579,-0.0538 0.17692,-0.16265 0.2981,-0.34103 0.3669,-0.54002 0.30907,-0.2687 0.34558,-0.78958 0.17725,-1.60662 0.12149,-0.22002 0.24852,-0.43866 0.38085,-0.65629 0.33939,-0.71202 0.38161,-1.58191 0.13591,-2.62878 h 5.2e-4 c 0.15274,-0.074 0.30589,-0.14644 0.45991,-0.21704 z m -7.925609,0.0315 c 0.12415,0.84341 0.457568,1.44154 0.921909,1.80868 0.257529,0.14148 0.514458,0.28368 0.769977,0.42736 1.479113,0.38034 2.603786,0.21999 3.531576,-0.48472 0.0963,-0.0732 0.19344,-0.14576 0.29094,-0.21756 0.13404,-0.11711 0.269517,-0.23279 0.406687,-0.34727 0.0354,0.0383 0.11532,0.0127 0.24081,-0.0739 0.0776,-0.0535 0.15528,-0.10647 0.23358,-0.15917 0.24605,-0.16552 0.45361,-0.38682 0.63252,-0.66817 l 0.0481,0.0599 c 0.14463,1.07857 0.0345,1.97631 -0.35605,2.72645 -0.51439,-0.51893 -1.276597,-0.52963 -2.246387,0.10955 -0.0459,0.0397 -0.0913,0.0794 -0.13694,0.11938 -0.42985,0.3777 -0.71581,0.89509 -0.828373,1.52652 -0.49507,0.0256 -0.9613,-0.10309 -1.387507,-0.40618 -0.244602,-0.17394 -0.4245,-0.37706 -0.535369,-0.61288 -0.0562,-0.0184 -0.15408,0.006 -0.292489,0.0744 -0.0568,0.093 0.14868,0.33115 0.618051,0.71107 0.405237,0.2821 0.919474,0.44327 1.533234,0.51057 -0.0688,0.88019 0.256693,1.50727 0.873333,1.91254 0.21306,0.14004 0.45279,0.23916 0.71676,0.30076 l 0.0383,0.0258 c -1.654103,0.25931 -3.186125,0.14247 -4.522734,-0.61029 -0.709281,-0.39945 -1.238811,-0.91167 -1.553911,-1.56787 -0.149439,-0.0883 -0.367408,-0.67771 -0.498678,-1.78025 0.16465,-1.54085 0.718931,-2.68685 1.454692,-3.34295 0.016,-0.014 0.03216,-0.0277 0.04806,-0.0419 z m 6.311769,0.29869 c 0.16924,0.008 0.33758,0.0174 0.50487,0.0284 -0.0587,0.0498 -0.11708,0.0996 -0.17518,0.14986 -0.15711,0.10084 -0.31263,0.20323 -0.46715,0.30747 0.0432,-0.16178 0.0889,-0.32374 0.13746,-0.48576 z m 22.29578,0.20361 c 0.36655,-0.005 0.74346,0.0648 1.12603,0.20929 0.16162,0.0885 0.32284,0.17831 0.48318,0.26872 0.61308,0.43831 0.7672,0.90532 0.49351,1.38286 l -0.0388,0.0682 c -0.38546,-0.049 -0.69558,-0.11904 -0.93379,-0.21394 -0.14681,-0.0585 -0.29377,-0.11672 -0.4408,-0.17363 -0.59635,-0.23102 -1.02559,-0.71092 -1.33687,-1.45366 0.2112,-0.0556 0.42757,-0.0851 0.6475,-0.0879 z m 6.73964,0.092 c 0.12687,0.11444 0.25254,0.22911 0.37776,0.34417 -0.16439,0.16462 -0.32836,0.32935 -0.49196,0.49454 -0.003,-0.0185 -0.007,-0.0368 -0.0109,-0.0553 -0.14798,0.0112 -0.26689,-0.004 -0.35709,-0.0475 z m -7.7096,0.0491 c 0.22717,0.41165 0.4935,0.79752 0.8015,1.15963 0.0184,-0.009 0.0368,-0.0173 0.0553,-0.0264 0.27836,0.23476 0.56087,0.40942 0.85318,0.524 0.18949,0.0743 0.37877,0.14954 0.56792,0.22634 0.20175,0.0541 0.40353,0.1097 0.60565,0.1664 -0.66592,0.58104 -1.32897,0.7296 -2.00814,0.46664 -0.0383,-0.0148 -0.0764,-0.0292 -0.11473,-0.0439 -0.33696,-0.12943 -0.48583,-0.42629 -0.45733,-0.89813 0.0483,-0.0987 0.20377,-0.21888 0.4687,-0.35554 l 0.0295,-0.0594 c -0.48321,0.0648 -0.7631,0.19345 -0.84801,0.37155 -0.18042,0.37825 -0.009,0.69914 0.50074,0.97772 0.0267,0.0101 0.0534,0.0203 0.0801,0.0305 0.20667,0.0786 0.55101,0.13251 1.0449,0.1726 0.58205,-0.003 1.13837,-0.19431 1.66915,-0.58032 0.91977,0.0782 1.69253,-0.0452 2.32027,-0.39636 0.0121,0.005 0.0242,0.0115 0.0362,0.0165 l -0.0424,0.0667 c -0.2053,0.29889 -0.41012,0.59797 -0.61495,0.8971 -0.0691,0.16493 -0.13866,0.32986 -0.20826,0.49455 -1.50685,0.94157 -2.88648,1.12106 -4.21525,0.59169 -0.14003,-0.0558 -0.2798,-0.11065 -0.41961,-0.16485 -0.2383,-0.11994 -0.47699,-0.23714 -0.71571,-0.35191 -0.75549,-0.63146 -0.98478,-1.3561 -0.62426,-2.1978 0.19442,-0.4539 0.59721,-0.82323 1.23559,-1.08728 z m 5.68078,0.35192 c 0.25639,0.11501 0.51204,0.23153 0.76637,0.34985 l -0.0243,0.0382 c -0.25413,-0.11823 -0.50968,-0.23493 -0.76585,-0.34985 z m 1.31259,0.52038 c 0.13086,0.021 0.26189,0.0424 0.39274,0.0641 0.0163,0.008 0.0323,0.0158 0.0486,0.0238 -0.57064,0.58531 -1.13644,1.10844 -1.69395,1.57045 -0.0236,-0.0112 -0.0471,-0.0225 -0.0708,-0.0336 l 0.0181,-0.0279 c 0.02,-0.007 0.0405,-0.0142 0.0605,-0.0212 l 0.0367,-0.0568 c 0.40095,-0.50724 0.80368,-1.01364 1.2082,-1.51877 z m -29.024057,1.52239 c 0.318187,-0.009 0.587857,0.099 0.807697,0.31213 l 0.0563,0.0548 c 0.0539,0.0522 -0.0949,0.23149 -0.43098,0.55243 -0.0927,0.0777 -0.18497,0.15654 -0.27647,0.23564 -0.535897,0.46341 -1.236027,0.67207 -2.163697,0.65526 0.0379,-0.4465 0.27798,-0.88107 0.71985,-1.27641 0.15149,-0.10021 0.30361,-0.19879 0.45683,-0.29559 0.30594,-0.15373 0.58296,-0.23129 0.83044,-0.23823 z"
       inkscape:export-filename="D:\inkscaped\Logo.png"
       inkscape:export-xdpi="96"
       inkscape:export-ydpi="96" />
  </g>
</svg>
